<?xml version="1.0" encoding="UTF-8" standalone="no"?>
<!-- Created with Inkscape (http://www.inkscape.org/) -->

<svg
   width="251"
   height="37"
   viewBox="0 0 66.410415 9.7895833"
   version="1.1"
   id="svg1"
   xmlns:inkscape="http://www.inkscape.org/namespaces/inkscape"
   xmlns:sodipodi="http://sodipodi.sourceforge.net/DTD/sodipodi-0.dtd"
   xmlns="http://www.w3.org/2000/svg"
   xmlns:svg="http://www.w3.org/2000/svg">
  <sodipodi:namedview
     id="namedview1"
     pagecolor="#ffffff"
     bordercolor="#000000"
     borderopacity="0.25"
     inkscape:showpageshadow="2"
     inkscape:pageopacity="0.0"
     inkscape:pagecheckerboard="0"
     inkscape:deskcolor="#d1d1d1"
     inkscape:document-units="mm" />
  <defs
     id="defs1" />
  <g
     inkscape:label="Calque 1"
     inkscape:groupmode="layer"
     id="layer1">
    <path
       d="m 1.0960589,3.6746433 c -0.51875302,0.23045 -0.64566302,0.49509 -0.44143802,0.86725 0.02069,0.19211 0.145692,0.35552 0.307065,0.50885 0.07988,0.0792 0.19715702,0.12712 0.33229202,0.16034 0.16053,0.0674 0.347582,0.0838 0.535285,0.0992 0.06891,0.0284 0.187536,-0.0203 0.231877,0.0552 -0.166746,0.0909 -0.355694,0.16609 -0.455955,0.29644 -0.01075,0.007 -0.01829,0.0141 -0.0235,0.0216 -0.01336,0.0123 -0.02679,0.0245 -0.04021,0.0368 0.03227,0.14722 0.04334,0.29342 -0.08817,0.43234 0,0 0.01294,0.005 0.01967,0.007 0.06176,0.0224 -0.01271,0.0899 0.07669,0.10312 0.04471,0.0368 0.04439,0.0814 0.04485,0.12599 -0.004,0.0217 -0.0081,0.0435 -0.01225,0.0652 0.05245,0.11283 0.1046,0.2258 0.220898,0.31884 -0.0021,0.0309 -0.0042,0.0617 -0.0065,0.0926 -0.01769,0.009 -0.03582,0.0186 -0.05213,0.0291 -0.124138,0.0825 -0.21197,0.17627 -0.234472,0.29012 -0.0038,0.0479 -0.0064,0.0852 -0.005,0.11481 -0.0532,0.16179 -0.0089,0.3179 0.0612,0.47256 -0.0076,0.0317 -0.01329,0.0639 -0.01541,0.0967 0.05959,0.25157 0.216515,0.45902 0.598944,0.5643496 0.02081,0.002 0.04274,0.003 0.06519,0.004 0.115788,0.0555 0.244366,0.0955 0.38894,0.11628 0.0026,0.008 0.0051,0.0168 0.0068,0.0264 0.002,0.0117 0.03454,0.0194 0.05426,0.0271 0.149688,0.0537 0.318508,0.0728 0.486402,0.0946 0.488125,0.0631 0.987001,0.0845 1.48328,0.1165 0.118488,0.008 0.228685,-0.002 0.337143,-0.0369 0.438362,-0.14158 0.89716,-0.14378 1.357896,-0.1211 0.69327,0.0342 1.384532,0.0795 2.08203,0.0915 0.195305,-3.5e-4 0.392599,-0.0147 0.58412,0.0135 0.05325,0.007 0.10645,0.007 0.16018,-0.004 0.0017,-6.9e-4 0.0035,-10e-4 0.0053,-0.002 0.165265,0.0115 0.330516,0.0231 0.496539,0.0306 0.1072,0.005 0.214428,0.01 0.3216384,0.0143 0.1533237,0.0179 0.3192937,0.008 0.4707777,0.0302 0.107812,0.0158 0.213829,0.0189 0.318636,0.005 0.81198,0.0361 1.62406,0.0718 2.436128,0.1075997 0.02819,0.01 0.05694,0.0131 0.08608,0.0127 0.122218,0.02 0.244101,0.0422 0.373111,-0.01 0.015,0.002 0.02934,5.1e-4 0.0428,-0.005 0.100456,0.0482 0.212734,0.0489 0.32662,0.0431 0.0774,0.007 0.150304,0.0203 0.224857,0.0305 0.820375,0.0987 1.659877,0.11388 2.49566,0.14207 0.483502,0.0163 0.966227,0.0375 1.451438,0.0461 1.215612,0.0214 2.421564,0.11184 3.642589,0.0988 0.284703,-0.0115 0.567792,0.009 0.852915,-0.008 0.146491,8.5e-4 0.293207,-4e-5 0.440011,-0.002 0.03204,0.004 0.0638,0.009 0.09608,0.01 0.02863,5.2e-4 0.05719,10e-4 0.08582,0.002 0.29954,0.0334 0.604674,0.0549 0.907956,0.0276 0.03578,-0.003 0.07179,-0.005 0.107893,-0.006 0.373933,0.008 0.747793,0.0157 1.12173,0.0234 0.06572,0.0189 0.139182,0.0262 0.218205,0.0245 0.865845,-0.019 1.721778,0.0455 2.585945,0.0427 0.08909,-3.4e-4 0.178335,-0.002 0.267569,-0.003 0.189374,0.006 0.376648,0.0417 0.568203,0.009 0.02936,0.002 0.05907,-1.7e-4 0.08829,0.002 0.01089,0.0132 0.02104,0.0349 0.03306,0.0349 l 4.01247,0.0131 c 0.08483,-0.0449 0.171169,-0.004 0.256884,-0.0109 0.03206,-0.003 0.06764,10e-4 0.08508,-0.0134 0.03621,-1.4e-4 0.07228,6.8e-4 0.108589,-0.002 0.257941,-0.0338 0.515242,0.003 0.773135,-0.0224 0.0033,-10e-4 0.0067,-10e-4 0.01004,-0.002 0.09001,-0.002 0.179889,-0.007 0.269799,-0.0189 0.02439,-10e-4 0.04866,-0.003 0.07244,-0.006 0.1568,3.4e-4 0.313586,8.5e-4 0.470385,10e-4 0.06336,0.01 0.131592,0.006 0.19761,0.008 0.06195,0.002 0.124197,0.002 0.186543,10e-4 0.0534,0.004 0.10682,0.009 0.160657,0.0103 0.08019,0.003 0.160604,0.003 0.24109,0.004 0.0078,10e-4 0.01568,0.002 0.02343,0.003 0.06511,0.01 0.130601,0.0115 0.197453,9e-5 0.0068,-0.002 0.01363,-0.003 0.02054,-0.005 0.190816,-0.003 0.381469,-0.007 0.570379,-0.003 0.320919,0.006 0.64254,0.0364 0.964041,0.0302 0.165732,0.004 0.331966,0.003 0.498284,0.002 0.08096,0.003 0.161835,0.004 0.242607,-1.7e-4 0.07303,1.7e-4 0.145938,8.5e-4 0.218765,0.002 0.029,3.4e-4 0.05787,5.1e-4 0.08695,10e-6 0.591288,5.2e-4 1.181063,-0.0584 1.772988,-0.0679 0.41672,-0.007 0.836621,-0.0315 1.25429,-0.0565 0.05858,-0.004 0.117,-0.009 0.174197,-0.0181 0.319413,-0.022 0.638068,-0.0515 0.95532,-0.0909 0.03098,0.009 0.06555,0.0152 0.106775,0.0148 0.02864,-3.4e-4 0.05721,-0.002 0.0855,-0.007 0.544524,-0.0345 1.08646,-0.10604 1.634015,-0.10222 0.41316,-10e-4 0.822854,-0.0529 1.23459,-0.076 1.021675,-0.0573 2.041735,-0.1358397 3.062921,-0.2013697 0.749404,-0.0481 1.499482,-0.0541 2.248969,-0.1056 0.40992,-0.0282 0.82724,-0.0549 1.231804,-0.0575 0.367709,-0.002 0.735962,-0.009 1.104486,-0.0213 0.06449,-0.01 0.12817,-0.0199 0.194511,-0.0229 0.598294,-0.0279 1.196397,-0.0381 1.79455,-0.0578 0.383499,-0.0127 0.76955,-0.0191 1.152402,-0.0652 0.08299,-3.4e-4 0.15918,-0.011 0.23133,-0.0277 0.22459,0.002 0.448727,-0.0167 0.67287,-0.0385 0.234593,-0.0239 0.470132,0.0508 0.704285,-0.0253 0.03238,-5.1e-4 0.0777,0.008 0.0954,-0.003 0.222541,-0.1332096 0.501727,-0.1312596 0.768732,-0.1650596 0.106175,-0.0135 0.183014,-0.0708 0.198758,-0.14769 0.0195,-0.021 0.0389,-0.042 0.05841,-0.063 0.07741,-0.15074 0.07673,-0.30161 0.0369,-0.45251 -0.280605,-0.0918 -0.28237,0.094 -0.392325,0.18584 -0.08504,-0.096 -0.07834,-0.23781 -0.29327,-0.22916 -0.186434,0.007 -0.210969,-0.067 -0.244405,-0.14828 2.4e-5,-0.0255 -2.66e-4,-0.051 -0.03903,-0.0662 -0.01013,-0.006 -0.02011,-0.0121 -0.03021,-0.0182 -0.0069,-0.0154 -0.01506,-0.0307 -0.02344,-0.0455 -0.04599,-0.0628 -0.12936,-0.0784 -0.22617,-0.0733 0.02396,-0.0164 0.08424,0.003 0.117338,-0.009 0.0099,1.7e-4 0.01964,-1.7e-4 0.02945,9e-5 0.0544,-6.8e-4 0.108925,-10e-4 0.16329,-0.008 0.551792,-0.0472 1.100952,-0.11359 1.654952,-0.14632 0.459464,-0.0403 0.8794,-0.19649 1.344965,-0.225 0.16232,-0.01 0.242647,-0.0997 0.280527,-0.2035 0.0688,-0.18888 -0.0057,-0.35543 -0.139432,-0.51273 -0.07628,-0.09 -0.05244,-0.12611 0.11845,-0.14253 0.195439,-0.0189 0.396538,-0.0106 0.586333,-0.0612 0.06984,-0.0218 0.143766,-0.0247 0.218159,-0.0283 0.05365,-0.003 0.106562,-0.007 0.159186,-0.0111 0.264116,-0.0132 0.523542,-0.0481 0.760644,-0.12896 0.14158,-0.0483 0.355881,-0.0676 0.432912,-0.19032 0.01213,-0.008 0.02283,-0.0171 0.03115,-0.0272 0.04222,-0.009 0.08454,-0.0175 0.126749,-0.0262 0.06113,-10e-4 0.122562,0.001 0.183845,0.002 0.07765,0.0135 0.174355,6.8e-4 0.255274,0.009 0.470677,-0.03 0.936497,-0.0754 1.402865,-0.13228 0.260271,0.007 0.411793,-0.11222 0.561676,-0.22042 l 0.0052,-0.0636 c -0.135963,-0.0539 -0.296533,-0.11503 -0.395483,-0.2118 -0.07595,-0.0742 -0.174853,-0.0546 -0.276955,-0.015 -0.18274,-0.0444 -0.204366,0.0895 -0.316082,0.124 -0.148021,0.0514 -0.195234,0.0101 -0.183051,-0.10477 -0.02835,0.11496 -0.173978,0.0745 -0.240637,0.11883 -0.01602,0.003 -0.02107,0.01 -0.01539,0.0197 -0.145019,0.14407 -0.2237,0.14684 -0.378836,0.0404 -0.04529,-0.0309 -0.11035,-0.11722 -0.185969,-0.0765 -0.09544,0.0513 -0.314763,-0.0191 -0.305088,0.13663 0.0024,0.0367 -0.07784,0.12307 -0.163952,0.0625 -0.07749,-0.0547 -0.144476,-0.0243 -0.211495,-0.0116 -0.01,-0.009 -0.01971,-0.0185 -0.02999,-0.0274 -0.127892,-0.11014 -0.26271,-0.21349 -0.509281,-0.21037 -0.0011,0.001 -0.0019,0.003 -0.0027,0.004 -0.0426,-0.0278 -0.08521,-0.0556 -0.12781,-0.0834 -0.110425,-0.0542 -0.20235,-0.12393 -0.335506,-0.15895 -0.01369,-0.009 -0.02731,-0.0184 -0.04357,-0.0245 -0.01501,-0.0152 -0.03503,-0.0292 -0.06214,-0.0418 -0.172627,-0.0484 -0.300885,0.0289 -0.432357,0.0815 -0.14371,0.0577 -0.309953,0.10985 -0.441481,0.0486 -0.335937,-0.15638 -0.710457,-0.11069 -1.088977,-0.0929 -0.377895,0.0178 -0.759145,0.0493 -1.131528,0.0562 -0.419404,0.008 -0.850688,0.0185 -1.249471,0.0684 -0.653823,0.0819 -1.296595,0.0229 -1.940946,0.0845 -0.445926,-0.003 -0.892324,0.0187 -1.338741,0.0347 0.13517,-0.013 0.270264,-0.0276 0.405801,-0.017 1.044885,-0.0615 2.086185,-0.16316 3.131185,-0.22518 0.511259,-0.0302 1.019983,-0.09 1.530253,-0.11855 1.320244,-0.0739 2.634226,-0.19365 3.948385,-0.31458 0.109212,-0.0101 0.211566,-0.0292 0.297271,-0.0792 0.0515,-0.0406 0.111,-0.0738 0.177885,-0.10106 0.09684,-0.0317 0.195094,-0.0592 0.31077,-2e-5 0.04836,0.0247 0.100838,-0.0199 0.117813,-0.0598 0.02417,-0.0565 0.04546,-0.1127 0.02193,-0.16556 0.0054,-0.0272 0.0066,-0.0544 7.97e-4,-0.0812 -0.100212,-0.28267 -0.407429,-0.46158 -0.747141,-0.6224 -0.09179,-0.0435 -0.204558,-0.0613 -0.324835,-0.0515 -0.524678,0.0432 -1.052208,0.0592 -1.574768,0.12288 -0.140336,0.0306 -0.28575,0.0204 -0.446242,0.0409 0.0499,-0.01 0.08246,-0.0106 0.113712,-0.0153 0.469602,-0.069 0.945152,-0.11409 1.415949,-0.17907 0.141925,-0.0196 0.303358,-0.0217 0.383601,-0.12757 0.01237,-0.0267 0.01,-0.0484 -7.96e-4,-0.0672 0.02863,-0.0477 0.01785,-0.0977 -0.0054,-0.14172 -0.02325,-0.0444 0.0076,-0.0629 0.04295,-0.0792 0.01706,9e-5 0.03412,-5.1e-4 0.05132,-0.003 0.0479,-0.007 0.08909,-0.0223 0.12532,-0.044 0.0072,-0.005 0.01536,-0.0108 0.02322,-0.0169 0.07055,-0.0144 0.107138,-0.063 0.08244,-0.084 -0.09748,-0.0829 -0.01658,-0.17435 -0.04181,-0.25869 -0.01037,-0.0347 -0.03399,-0.0593 -0.06917,-0.0793 7.98e-4,-0.0185 0,-0.037 -0.0016,-0.0553 -0.07804,-0.0792 -0.197294,-0.12392 -0.336899,-0.14022 -0.537992,-0.0628 -1.081082,-0.0244 -1.618088,0.047 -0.227828,0.0303 -0.460177,0.0608 -0.683764,0.0687 -0.306789,0.0109 -0.40074,-0.16549 -0.465074,-0.3209 -0.04745,-0.11444 -0.142761,-0.20551 -0.308401,-0.21503 -0.399555,-0.023 -0.816081,-0.13808 -1.197866,0.0822 -0.05177,0.0299 -0.126793,0.0235 -0.192389,0.0301 -0.03417,-0.004 -0.06496,-0.007 -0.09423,-0.0103 -0.08214,-0.0455 -0.209963,-0.0427 -0.308415,-0.0676 -0.157408,-0.0399 -0.268163,0.0203 -0.288147,0.11055 l -0.02424,-9e-5 c -5.31e-4,0 -0.0014,0.004 -0.0016,0.004 -0.04476,-0.001 -0.09498,0.0107 -0.145521,0.0214 -0.06267,0.009 -0.114775,0.017 -0.155954,0.0242 -0.07385,5.1e-4 -0.135391,-0.0254 -0.163204,-0.12304 -0.0021,-0.008 -0.101975,-0.0142 -0.137872,-5.1e-4 -0.134384,0.0513 -0.1925,0.11984 -0.100963,0.21131 -0.01025,0.004 -0.02054,0.008 -0.03151,0.0134 -0.01256,0.006 -0.02545,0.0117 -0.03865,0.0178 -0.106775,0.003 -0.1994,0.006 -0.291663,0.009 -0.0011,0.0269 0.0078,0.0547 -0.0016,0.081 -0.0078,5.1e-4 -0.01523,0.001 -0.0232,0.002 -0.257202,0.0629 -0.46848,0.0356 -0.621209,-0.1104 -0.02226,-0.0213 -0.07051,-0.0303 -0.08924,-0.0512 -0.112925,-0.12567 -0.27914,-0.11623 -0.463854,-0.0666 -0.0041,0.003 -0.0082,0.006 -0.0125,0.008 -0.131424,-0.0118 -0.269921,-0.0116 -0.300114,-0.13066 -0.0115,-0.0455 -0.0955,-0.0675 -0.177782,-0.0621 -0.195234,0.0126 -0.175583,-0.0566 -0.115238,-0.13565 0.08211,-0.10729 0.158415,-0.21402 0.12,-0.33479 -0.011,-0.005 -0.02349,-0.007 -0.03753,-0.007 -0.26655,-0.13926997 -0.596181,-0.14070997 -0.919173,-0.15643997 -0.02951,-0.0206 -0.07595,-0.0372 -0.100575,-0.0591 -0.220042,-0.12503 -0.473959,-0.21495 -0.769634,-0.24264 -0.579981,-0.0543 -1.168481,-0.0684 -1.757829,-0.0742 -0.130569,-0.001 -0.272045,0.0155 -0.374595,-0.0435 -0.123925,-0.0713 -0.280772,-0.0817 -0.429957,-0.12734 l -0.594532,-0.002 c -0.03527,-1.3e-4 -0.07774,0.0105 -0.118987,0.0112 -0.866643,0.0144 -1.734235,0.0406 -2.599124,0.0918 -1.411981,0.0838 -2.823422,0.14571 -4.234929,0.16174 -1.345003,0.0152 -2.690037,0.0381 -4.035311,0.0613 -0.272305,0.005 -0.545795,-0.017 -0.815777,-8.5e-4 -1.273399,0.0761 -2.543248,0.0527 -3.813902,0.069 -1.122867,0.0143 -2.245365,0.005 -3.366913,-0.007 -1.434925,-0.0149 -2.875018,0.0458 -4.309323,0.0188 -0.271888,-0.005 -0.5447,-0.003 -0.817826,-0.002 -0.14045,0.007 -0.280365,0.007 -0.419617,0.004 -0.05299,-8.6e-4 -0.09981,0.003 -0.14177,0.0121 -0.113208,0.006 -0.225738,0.0264 -0.337101,0.0732 -0.05272,0.0221 -0.102547,0.0219 -0.160087,0.003 -0.373401,-0.12449 -0.7796,-0.0808 -1.182161,-0.0524 -0.158107,0.0173 -0.309265,-0.0471 -0.468186,-0.0211 -0.03886,-0.0141 -0.08474,-0.0234 -0.142939,-0.0242 -1.265819,-0.0236 -2.531418,-0.0556 -3.798554,-0.0729 -0.773682,-0.0105 -1.547937,-0.0111 -2.31991,-0.0407 -0.309201,-0.0118 -0.624687,-0.0233 -0.939063,0.0146 -0.09839,0.0178 -0.196867,0.009 -0.295224,0.0121 -0.305008,0.008 -0.598164,-0.0472 -0.904841,-0.0369 -0.08389,0.003 -0.164028,0.0126 -0.242901,0.0249 -0.155289,-0.003 -0.310533,-0.007 -0.465638,-0.0114 -0.04866,-0.001 -0.09717,-0.002 -0.14573,-0.003 -0.03711,-0.007 -0.07467,-0.0138 -0.11247,-0.0164 -0.147222,-0.0104 -0.288488,-0.003 -0.429275,0.0145 -0.06355,8.5e-4 -0.127103,0.002 -0.19084,0.003 -0.153601,0.003 -0.306688,-1.4e-4 -0.459836,-0.005 -0.03272,-0.007 -0.07173,-0.008 -0.106836,-0.01 -0.21092,-0.0127 -0.428719,0.0154 -0.635141,-0.0227 -0.02637,-0.005 -0.05349,-0.008 -0.08106,-0.01 -0.656638,0.0115 -1.299423,-0.0605 -1.952697,-0.0733 -0.02903,6.8e-4 -0.05539,0.002 -0.07988,0.005 -0.14995,-0.0367 -0.309466,-0.0324 -0.469327,-0.0266 -0.11635,-0.0106 -0.224821,-0.0481 -0.349195,-0.0315 -0.1794263,-0.0144 -0.3600261,-0.0175 -0.5420211,-0.006 -0.188177,-0.0361 -0.381304,-0.0513 -0.576334,-0.0583 -1.4e-4,-3.4e-4 -4.25e-4,-5.1e-4 -5.05e-4,-6.8e-4 -0.132525,-0.0284 -0.274274,-0.0125 -0.411109,-0.0202 -0.242617,-0.0373 -0.492524,-0.0348 -0.742331,-0.0302 -0.105225,-0.0345 -0.22061,-0.0243 -0.335428,-0.0166 -0.11495,0.028 -0.06949,0.0856 -0.06926,0.13442 4.92e-4,0.0543 0.05685,0.11067987 -0.0466,0.17499987 -0.08202,-0.0549 -0.128701,-0.11141 -0.100488,-0.19109987 0.0156,-0.0441 0.06265,-0.0944 -0.03834,-0.11997 -0.04937,-5.1e-4 -0.09882,-0.001 -0.148126,-0.002 -0.230637,-0.005 -0.453032,-0.0518 -0.688153,-0.0332 -0.566301,0.004 -1.126099,-0.0422 -1.691786,-0.0427 -0.07315,-0.0118 -0.149256,-0.0104 -0.225625,-0.008 -0.0223,0.002 -0.04388,0.005 -0.06506,0.01 -0.560043,-0.007 -1.119437,-0.0313 -1.682238,0.0286 -0.248473,0.006 -0.48289,0.0568 -0.714637,0.11552 -0.01125,0.008 -0.02255,0.0154 -0.03384,0.0231 -0.0085,-0.004 -0.01698,-0.008 -0.02629,-0.0115 -0.312288,0.0528 -0.574433,0.33036987 -0.513962,0.55602987 0.03029,0.11312 0.06022,0.22777 0.113525,0.33641 0.167414,0.34078 0.466046,0.6 1.059484,0.66379 0.0364,-0.002 0.06335,-0.008 0.08347,-0.0151 0.02652,0.006 0.05304,0.0111 0.07963,0.0166 0.02374,0.004 0.04614,0.008 0.06632,0.0102 0.186762,0.0296 0.377692,0.0467 0.570516,0.0581 0.01517,0.0139 0.03197,0.0271 0.05314,0.0378 0.22217,0.056 0.465052,0.051 0.697375,0.0772 0.09956,0.0112 0.219883,0.008 0.237108,0.10227 0.03193,0.17504 -0.05909,0.24107 -0.335978,0.24347 -0.651283,0.006 -1.301262,-0.0325 -1.954057,0.0284 -0.398745,0.0372 -0.76673,0.1164 -0.947675,0.38818 -0.0152,0.0337 -0.01344,0.068 -0.0063,0.10248 -0.06896,0.0859 -0.132665,0.17206 -0.0321,0.2682 -0.0085,0.007 -0.01754,0.0135 -0.02824,0.0202 0.0144,0.077 -0.004,0.15799 0.05151,0.23005 0.02482,0.0204 0.03706,0.0498 0.05448,0.0754 -0.0043,0.0315 -0.02201,0.0623 -0.08824,0.0918 z m 56.8253241,3.76154 c 0.0051,0.008 0.0097,0.0141 0.01461,0.0212 -0.0042,1.7e-4 -0.0075,8.5e-4 -0.01125,0.001 -0.0011,-0.007 -0.0019,-0.0146 -0.0035,-0.0224 z M 22.836164,9.2597026 c 0.0019,-0.001 0.0034,-0.003 0.0052,-0.004 5.58e-4,0.001 0.001,0.003 0.0017,0.004 -0.0023,4e-5 -0.0046,-1e-5 -0.0068,9e-5 z M 7.7638249,0.32237336 c 9.78e-4,4e-5 0.0019,4e-5 0.0029,9e-5 -2.82e-4,-10e-6 -4.92e-4,-10e-6 -7.05e-4,-10e-6 -7.04e-4,0 -0.0015,-9e-5 -0.0021,-1.3e-4 z M 13.882267,8.7834629 c -5.04e-4,-0.007 -0.0025,-0.013 -0.006,-0.019 0.008,10e-4 0.01604,0.002 0.02407,0.004 -0.0065,0.005 -0.01219,0.0102 -0.01819,0.0153 z m -0.0638,-8.12173957 c -4e-5,-0.001 -4.25e-4,-0.002 -5.05e-4,-0.003 0.0024,3.4e-4 0.0049,6.8e-4 0.0074,0.001 -0.0027,8.6e-4 -0.0043,0.001 -0.0068,0.002 z M 8.9854239,0.40740336 c 0,0 7e-5,0 1.4e-4,0 0,0 -1.4e-4,5e-5 -1.4e-4,9e-5 1.4e-4,0.002 -7.2e-5,0.005 3e-5,0.007 -0.0017,-0.002 -0.0034,-0.005 -0.0053,-0.007 0.0018,5e-5 0.0035,1.4e-4 0.0053,1.8e-4 z m -1.916064,-0.0816 8.5e-4,-1.4e-4 c -2.11e-4,3.4e-4 -2.81e-4,5.2e-4 -4.91e-4,8.6e-4 -3.52e-4,-1.7e-4 -8.85e-4,-3.4e-4 -0.0013,-5.2e-4 2.81e-4,10e-6 6.32e-4,10e-6 9.91e-4,-9e-5 0,0 4e-6,-4e-5 7e-6,-9e-5 0,0 0,0 0,0 z"
       id="path7274"
       style="fill:#394054;fill-opacity:1;stroke-width:0.0563319" />
  </g>
</svg>
