<?xml version="1.0" encoding="UTF-8" standalone="no"?>
<!-- Created with Inkscape (http://www.inkscape.org/) -->

<svg
   width="310"
   height="105"
   viewBox="0 0 82.020831 27.78125"
   version="1.1"
   id="svg1"
   inkscape:export-filename="brush-gray-double.svg"
   inkscape:export-xdpi="96"
   inkscape:export-ydpi="96"
   xmlns:inkscape="http://www.inkscape.org/namespaces/inkscape"
   xmlns:sodipodi="http://sodipodi.sourceforge.net/DTD/sodipodi-0.dtd"
   xmlns="http://www.w3.org/2000/svg"
   xmlns:svg="http://www.w3.org/2000/svg">
  <sodipodi:namedview
     id="namedview1"
     pagecolor="#ffffff"
     bordercolor="#000000"
     borderopacity="0.25"
     inkscape:showpageshadow="2"
     inkscape:pageopacity="0.0"
     inkscape:pagecheckerboard="0"
     inkscape:deskcolor="#d1d1d1"
     inkscape:document-units="mm" />
  <defs
     id="defs1" />
  <g
     inkscape:label="Calque 1"
     inkscape:groupmode="layer"
     id="layer1">
    <path
       d="m 1.2028974,10.102227 c -0.62250314,0.658256 -0.77479504,1.414172 -0.52972521,2.477207 0.024828,0.548741 0.17483028,1.015505 0.36847771,1.453475 0.095856,0.226227 0.2365883,0.363105 0.3987502,0.457995 0.1926358,0.19252 0.4170981,0.239365 0.6423415,0.283353 0.082692,0.08113 0.2250431,-0.05799 0.2782522,0.157674 -0.200095,0.259646 -0.4268325,0.474418 -0.5471456,0.846749 -0.0129,0.02 -0.021948,0.04028 -0.0282,0.0617 -0.016032,0.03514 -0.032148,0.06999 -0.048252,0.105113 0.038724,0.420518 0.052008,0.838123 -0.105804,1.234933 0,0 0.015528,0.01427 0.023604,0.01999 0.074112,0.06399 -0.015252,0.25679 0.092028,0.294552 0.053652,0.105112 0.053268,0.23251 0.05382,0.359876 -0.0048,0.06199 -0.00972,0.124251 -0.0147,0.186237 0.06294,0.322287 0.1255199,0.644974 0.2650774,0.910733 -0.00252,0.08826 -0.00504,0.176239 -0.0078,0.264502 -0.021228,0.02571 -0.042984,0.05312 -0.062556,0.08312 -0.1489655,0.235651 -0.2543638,0.503496 -0.2813662,0.828696 -0.00456,0.136822 -0.00768,0.243364 -0.006,0.327942 -0.06384,0.462136 -0.01068,0.908048 0.07344,1.349817 -0.00912,0.09055 -0.015948,0.182524 -0.018492,0.276213 0.071508,0.718583 0.2598178,1.311141 0.7187322,1.612004 0.024972,0.0057 0.051288,0.0086 0.078228,0.01138 0.1389455,0.158529 0.293239,0.272786 0.4667277,0.332141 0.00312,0.02285 0.00612,0.04799 0.00816,0.07541 0.0024,0.03342 0.041448,0.05541 0.065112,0.07741 0.1796255,0.153388 0.3822093,0.207946 0.583682,0.270214 0.5857496,0.180239 1.1844004,0.241366 1.7799347,0.33277 0.1421855,0.02285 0.2744218,-0.0057 0.4045714,-0.1054 0.526034,-0.404409 1.0765912,-0.410692 1.629474,-0.34591 0.8319234,0.09769 1.6614372,0.227083 2.4984342,0.261361 0.2343654,-0.001 0.4711184,-0.04199 0.7009434,0.03856 0.0639,0.02 0.12774,0.02 0.192216,-0.01138 0.002,-0.002 0.0042,-0.0029 0.0064,-0.0057 0.198318,0.03285 0.396619,0.06599 0.595846,0.0874 0.12864,0.01429 0.257314,0.02856 0.385966,0.04085 0.183988,0.05112 0.383152,0.02285 0.564933,0.08626 0.129374,0.04512 0.256595,0.05399 0.382363,0.01429 0.974375,0.103112 1.948871,0.205089 2.923351,0.307346 0.03383,0.02856 0.06833,0.03741 0.103296,0.03627 0.146662,0.05713 0.292921,0.120538 0.447733,-0.02856 0.018,0.0058 0.03521,0.0015 0.05136,-0.01427 0.120547,0.137678 0.255281,0.139678 0.391944,0.123113 0.09288,0.02 0.180365,0.05799 0.269828,0.08713 0.98445,0.281925 1.991851,0.325285 2.99479,0.405807 0.580202,0.04656 1.159472,0.107112 1.741724,0.13168 1.458734,0.06113 2.905875,0.319459 4.371104,0.282212 0.341644,-0.03285 0.68135,0.02571 1.023497,-0.02285 0.17579,0.0024 0.351849,-1.14e-4 0.528013,-0.0057 0.03845,0.01138 0.07656,0.02571 0.115296,0.02856 0.03436,0.0015 0.06863,0.0029 0.102984,0.0057 0.359448,0.0954 0.725608,0.156817 1.089547,0.07884 0.04294,-0.0086 0.08615,-0.01429 0.129471,-0.01714 0.448719,0.02285 0.897351,0.04485 1.346075,0.06684 0.07886,0.05399 0.167018,0.07484 0.261846,0.06997 1.039013,-0.05427 2.066132,0.129966 3.103132,0.121963 0.106908,-9.7e-4 0.214002,-0.0057 0.321082,-0.0086 0.227249,0.01714 0.451978,0.119112 0.681843,0.02571 0.03523,0.0057 0.07088,-4.85e-4 0.105948,0.0057 0.01307,0.0377 0.02525,0.09969 0.03967,0.09969 l 4.814961,0.03741 c 0.101796,-0.128252 0.205403,-0.01137 0.30826,-0.03114 0.03847,-0.0086 0.08117,0.0029 0.102096,-0.03828 0.04345,-3.99e-4 0.08674,0.002 0.130307,-0.0057 0.309529,-0.09655 0.61829,0.0086 0.927761,-0.06399 0.004,-0.0029 0.008,-0.0029 0.01205,-0.0058 0.108012,-0.0057 0.215867,-0.02 0.323759,-0.05399 0.02927,-0.0029 0.05839,-0.0086 0.08693,-0.01714 0.18816,9.71e-4 0.376303,0.0024 0.564462,0.0029 0.07603,0.02856 0.15791,0.01714 0.237131,0.02285 0.07434,0.0058 0.149037,0.0058 0.223852,0.0029 0.06408,0.01137 0.128184,0.02571 0.192788,0.02942 0.09623,0.0086 0.192725,0.0086 0.289308,0.01137 0.0094,0.0029 0.01882,0.0058 0.02812,0.0086 0.07813,0.02856 0.156721,0.03285 0.236943,2.56e-4 0.0082,-0.0058 0.01636,-0.0086 0.02465,-0.01428 0.228979,-0.0086 0.457763,-0.02 0.684455,-0.0086 0.385102,0.01714 0.771047,0.103976 1.156848,0.08626 0.198878,0.01138 0.398359,0.0086 0.59794,0.0057 0.09715,0.0086 0.194202,0.01138 0.291129,-4.85e-4 0.08764,4.85e-4 0.175125,0.0024 0.262517,0.0057 0.0348,9.71e-4 0.06944,0.0015 0.10434,2.9e-5 0.709545,0.0015 1.417275,-0.166814 2.127584,-0.193949 0.500064,-0.02 1.003945,-0.08997 1.505147,-0.161387 0.0703,-0.01138 0.1404,-0.02571 0.209037,-0.0517 0.383295,-0.06284 0.765681,-0.147105 1.146383,-0.259647 0.03718,0.02571 0.07866,0.04341 0.12813,0.04228 0.03437,-9.72e-4 0.06865,-0.0057 0.1026,-0.02 0.653428,-0.09855 1.303751,-0.302891 1.960816,-0.29198 0.495792,-0.0029 0.987424,-0.151103 1.481507,-0.217085 1.226009,-0.163672 2.45008,-0.388012 3.675503,-0.575191 0.899284,-0.137393 1.799377,-0.154532 2.698761,-0.301636 0.491903,-0.08055 0.992687,-0.156816 1.478163,-0.164243 0.441251,-0.0057 0.883154,-0.02571 1.325383,-0.06084 0.07739,-0.02856 0.153804,-0.05684 0.233413,-0.06541 0.717952,-0.07969 1.435675,-0.108825 2.153458,-0.165099 0.460199,-0.03627 0.92346,-0.05456 1.382882,-0.186237 0.09959,-9.71e-4 0.191016,-0.03142 0.277595,-0.07913 0.269508,0.0058 0.538472,-0.0477 0.807444,-0.109975 0.281511,-0.06826 0.564158,0.145105 0.845141,-0.07226 0.03886,-0.0015 0.09324,0.02285 0.11448,-0.0086 0.267049,-0.3805 0.602072,-0.37493 0.922478,-0.471476 0.12741,-0.03856 0.219617,-0.202232 0.238509,-0.421861 0.0234,-0.05999 0.04668,-0.119963 0.07009,-0.179952 0.09289,-0.430573 0.09208,-0.861517 0.04428,-1.292547 -0.336725,-0.262217 -0.338843,0.268502 -0.470789,0.530832 -0.102048,-0.274213 -0.09401,-0.679278 -0.351924,-0.654571 -0.223721,0.02 -0.253163,-0.191378 -0.293286,-0.423546 2.9e-5,-0.07284 -3.19e-4,-0.145675 -0.04684,-0.189092 -0.01216,-0.01714 -0.02413,-0.03456 -0.03625,-0.05199 -0.0083,-0.04399 -0.01807,-0.08769 -0.02813,-0.129966 -0.05519,-0.179382 -0.155232,-0.223941 -0.271404,-0.209373 0.02875,-0.04685 0.101088,0.0086 0.140806,-0.02571 0.01188,4.85e-4 0.02357,-4.86e-4 0.03534,2.56e-4 0.06528,-0.002 0.13071,-0.0029 0.195948,-0.02285 0.66215,-0.134822 1.321141,-0.324458 1.985941,-0.417948 0.551356,-0.115113 1.055279,-0.561252 1.613957,-0.642689 0.194783,-0.02856 0.291176,-0.284781 0.336632,-0.581276 0.08256,-0.539514 -0.0068,-1.015246 -0.167319,-1.464557 -0.09153,-0.257076 -0.06293,-0.360219 0.14214,-0.407122 0.234527,-0.05399 0.475846,-0.03027 0.703599,-0.174812 0.08381,-0.06227 0.17252,-0.07055 0.261791,-0.08084 0.06438,-0.0086 0.127874,-0.02 0.191023,-0.0317 0.316939,-0.0377 0.62825,-0.137393 0.912772,-0.368361 0.169896,-0.137964 0.427057,-0.193091 0.519494,-0.543628 0.01456,-0.02285 0.0274,-0.04885 0.03738,-0.0777 0.05066,-0.02571 0.101448,-0.04999 0.152099,-0.07484 0.07336,-0.0029 0.147074,0.0029 0.220614,0.0058 0.09318,0.03856 0.209226,0.002 0.306328,0.02571 0.564812,-0.08569 1.123796,-0.215371 1.683437,-0.377843 0.312325,0.02 0.494151,-0.320544 0.674011,-0.629606 l 0.0062,-0.181666 c -0.163156,-0.153959 -0.355839,-0.328571 -0.474579,-0.604984 -0.09114,-0.211945 -0.209824,-0.155959 -0.332346,-0.04285 -0.219288,-0.126824 -0.245239,0.255647 -0.379298,0.354193 -0.177625,0.146818 -0.234281,0.02885 -0.219661,-0.299264 -0.03402,0.32837 -0.208774,0.2128 -0.288764,0.339424 -0.01922,0.0086 -0.02528,0.02856 -0.01847,0.05627 -0.174023,0.411521 -0.26844,0.419434 -0.454603,0.1154 -0.05435,-0.08826 -0.13242,-0.334825 -0.223163,-0.218512 -0.114528,0.146532 -0.377715,-0.05456 -0.366105,0.390268 0.0029,0.104825 -0.09341,0.351537 -0.196743,0.178525 -0.09299,-0.156245 -0.173371,-0.06941 -0.253793,-0.03314 -0.012,-0.02571 -0.02365,-0.05284 -0.03599,-0.07826 -0.153471,-0.314603 -0.315252,-0.609811 -0.611137,-0.600899 -0.0013,0.0029 -0.0023,0.0086 -0.0032,0.01137 -0.05112,-0.07941 -0.102252,-0.158815 -0.153372,-0.238223 -0.13251,-0.154816 -0.24282,-0.353993 -0.402607,-0.454023 -0.01643,-0.02571 -0.03277,-0.05256 -0.05228,-0.06999 -0.01801,-0.04341 -0.04204,-0.0834 -0.07457,-0.119401 -0.207152,-0.13825 -0.361062,0.08255 -0.518828,0.232796 -0.172452,0.164814 -0.371943,0.313775 -0.529777,0.138821 -0.403124,-0.446683 -0.852548,-0.316174 -1.306771,-0.265359 -0.453474,0.05085 -0.910974,0.14082 -1.357833,0.160529 -0.503284,0.02285 -1.020825,0.05285 -1.499364,0.195378 -0.784587,0.233938 -1.555913,0.06541 -2.329134,0.241364 -0.53511,-0.0086 -1.070788,0.05341 -1.606488,0.09911 0.162204,-0.03714 0.324317,-0.07884 0.486961,-0.04856 1.253861,-0.175668 2.50342,-0.466049 3.75742,-0.643202 0.61351,-0.08626 1.223978,-0.257076 1.836302,-0.338626 1.584292,-0.211087 3.161069,-0.55314 4.738059,-0.898564 0.131054,-0.02885 0.253879,-0.08341 0.356725,-0.226226 0.0618,-0.11597 0.133199,-0.210802 0.213461,-0.288667 0.116208,-0.09055 0.234113,-0.169099 0.372924,-5.7e-5 0.05803,0.07055 0.121006,-0.05684 0.141376,-0.170813 0.029,-0.161386 0.05455,-0.321915 0.02632,-0.472904 0.0065,-0.07769 0.0079,-0.155388 9.56e-4,-0.231939 C 78.058196,9.4618813 77.689536,8.950844 77.281881,8.491479 77.171733,8.3672259 77.036412,8.3163821 76.89208,8.3443747 c -0.629613,0.1233965 -1.262649,0.1690985 -1.889721,0.3509935 -0.168403,0.087405 -0.342899,0.05827 -0.53549,0.1168265 0.05988,-0.028564 0.09895,-0.030278 0.136455,-0.043703 0.563522,-0.1970911 1.134181,-0.3258859 1.699137,-0.5114943 0.17031,-0.055985 0.36403,-0.061984 0.460321,-0.36439 0.01484,-0.076266 0.012,-0.1382495 -9.55e-4,-0.1919496 0.03436,-0.1362499 0.02142,-0.2790696 -0.0065,-0.404808 -0.0279,-0.1268239 0.0091,-0.1796671 0.05154,-0.2262263 0.02047,2.571e-4 0.04094,-0.00146 0.06158,-0.00857 0.05748,-0.019995 0.106908,-0.063698 0.150384,-0.1256814 0.0086,-0.014281 0.01843,-0.030849 0.02786,-0.048273 0.08466,-0.041132 0.128565,-0.1799528 0.09893,-0.239937 -0.116976,-0.2367949 -0.0199,-0.4980121 -0.05017,-0.7389203 -0.01244,-0.099116 -0.04079,-0.169384 -0.083,-0.2265119 9.57e-4,-0.052844 0,-0.1056864 -0.0019,-0.1579585 C 76.916903,5.2975409 76.773798,5.169803 76.606272,5.1232438 75.960682,4.9438623 75.308975,5.0535474 74.664568,5.2574942 74.391175,5.3440431 74.112356,5.4311629 73.844052,5.4537285 73.475905,5.4848635 73.363164,4.981024 73.285963,4.537112 73.229023,4.2102264 73.11465,3.9500947 72.915882,3.9229019 72.436417,3.8572043 71.936586,3.5284912 71.478444,4.1576973 71.41632,4.2431037 71.326293,4.2248224 71.247578,4.243675 71.206574,4.23225 71.169626,4.2236799 71.134502,4.2142537 71.035934,4.0842878 70.882546,4.092286 70.764404,4.0211616 70.575515,3.9071914 70.442609,4.0791467 70.418628,4.3369358 l -0.02909,-2.572e-4 c -6.37e-4,0 -0.0017,0.011425 -0.0019,0.011425 -0.05371,-0.00286 -0.113976,0.030564 -0.174625,0.061126 -0.0752,0.025708 -0.13773,0.048559 -0.187145,0.069125 -0.08862,0.00146 -0.162469,-0.072553 -0.195845,-0.3514506 -0.0025,-0.022851 -0.122369,-0.040561 -0.165446,-0.00146 -0.16126,0.146533 -0.231,0.3423102 -0.121155,0.6035844 -0.0123,0.011425 -0.02465,0.022851 -0.03781,0.038276 -0.01507,0.017139 -0.03054,0.03342 -0.04638,0.050844 -0.12813,0.00857 -0.23928,0.017139 -0.349996,0.025707 -0.0013,0.076838 0.0094,0.1562447 -0.0019,0.2313678 -0.0094,0.00146 -0.01828,0.00286 -0.02784,0.00571 -0.308642,0.1796671 -0.562175,0.1016877 -0.74545,-0.3153458 -0.02671,-0.060841 -0.08461,-0.086549 -0.107088,-0.1462472 -0.13551,-0.358963 -0.334968,-0.3319986 -0.556624,-0.1902359 -0.0049,0.00858 -0.0098,0.017139 -0.015,0.022851 -0.157709,-0.033705 -0.323905,-0.033134 -0.360137,-0.3732162 -0.0138,-0.1299659 -0.1146,-0.1928066 -0.213338,-0.1773821 -0.234281,0.03599 -0.210699,-0.1616718 -0.138285,-0.3874697 0.09853,-0.3064623 0.190097,-0.611325 0.143999,-0.9562916 -0.0132,-0.014283 -0.02819,-0.019995 -0.04504,-0.019995 C 66.722674,2.1398042 66.327117,2.1356909 65.939527,2.0907599 65.904117,2.0319185 65.848387,1.9845022 65.818837,1.9219471 65.55475,1.5648123 65.25005,1.3079655 64.895241,1.228872 64.199264,1.0737698 63.493064,1.0334947 62.785847,1.0169276 62.629165,1.0140712 62.459393,1.0612017 62.336334,0.89267453 62.187624,0.68901373 61.999407,0.65930724 61.820386,0.52894148 l -0.713438,-0.005713 c -0.04232,-3.7133e-4 -0.09329,0.0299922 -0.142785,0.0319915 -1.039971,0.0411321 -2.08108,0.11596958 -3.118946,0.26221686 -1.694376,0.23936576 -3.388104,0.41620506 -5.081911,0.46199296 -1.614003,0.043418 -3.228043,0.108829 -4.84237,0.1750969 -0.326766,0.014281 -0.654954,-0.048559 -0.978932,-0.00243 -1.528078,0.2173715 -3.051895,0.1505321 -4.576679,0.1970913 -1.34744,0.040846 -2.694436,0.014282 -4.040293,-0.019995 -1.721909,-0.04256 -3.450019,0.1308228 -5.171184,0.0537 -0.326265,-0.014282 -0.653639,-0.00857 -0.98139,-0.00571 -0.16854,0.019995 -0.336438,0.019995 -0.50354,0.011425 -0.06359,-0.00246 -0.119772,0.00857 -0.170124,0.034563 -0.13585,0.017139 -0.270886,0.075409 -0.404521,0.209088 -0.06326,0.063126 -0.123056,0.062555 -0.192104,0.00857 C 30.454088,1.5852366 29.966649,1.7100325 29.483576,1.791154 29.293848,1.840569 29.112459,1.6566179 28.921754,1.730884 28.875124,1.690609 28.820066,1.664044 28.750227,1.661759 27.231245,1.594348 25.712527,1.5029436 24.191965,1.453528 23.263548,1.423535 22.334442,1.421822 21.408075,1.3372728 21.037034,1.3035678 20.658451,1.2707188 20.2812,1.3789768 c -0.118067,0.050844 -0.23624,0.025707 -0.354268,0.034563 -0.366009,0.022851 -0.717796,-0.1348218 -1.085809,-0.1054015 -0.100667,0.00857 -0.196833,0.03599 -0.29148,0.071124 -0.186347,-0.00857 -0.37264,-0.019995 -0.558766,-0.032563 -0.05839,-0.00286 -0.116604,-0.00571 -0.174876,-0.00857 -0.04453,-0.019995 -0.0896,-0.039419 -0.134963,-0.046845 -0.176667,-0.029706 -0.346186,-0.00857 -0.51513,0.041418 -0.07626,0.00242 -0.152524,0.00571 -0.229008,0.00857 -0.184321,0.00857 -0.368025,-3.998e-4 -0.551803,-0.014282 -0.03926,-0.019995 -0.08608,-0.022851 -0.128203,-0.028564 -0.253104,-0.036276 -0.514462,0.043989 -0.762169,-0.06484 -0.03164,-0.014281 -0.06419,-0.022851 -0.09727,-0.028564 -0.787966,0.032849 -1.559307,-0.1728118 -2.343235,-0.20937365 -0.03484,0.001943 -0.06647,0.005713 -0.09586,0.0142819 -0.17994,-0.10482924 -0.371359,-0.092547 -0.563192,-0.0759799 -0.13962,-0.0302778 -0.269785,-0.13739249 -0.419034,-0.0899764 -0.215311,-0.0411397 -0.432031,-0.0499946 -0.650425,-0.017146 -0.225812,-0.1031158 -0.457564,-0.14653295 -0.6916,-0.1665277 -1.68e-4,-9.7118e-4 -5.1e-4,-0.001456 -6.06e-4,-0.001943 -0.15903,-0.0811215 -0.329129,-0.0357049 -0.49333,-0.0576991 C 9.8490353,0.49412194 9.5491471,0.50126295 9.249379,0.51440235 9.123109,0.41585681 8.9846471,0.44499198 8.8468656,0.46698627 8.7089257,0.54696528 8.7634777,0.71149349 8.7637537,0.85094259 8.7643441,1.0060447 8.8319737,1.1670878 8.7078337,1.3508109 8.6094098,1.193995 8.5533926,1.0325802 8.5872482,0.80495466 8.6059682,0.67898774 8.6624282,0.53531119 8.5412402,0.46227322 8.4819962,0.46081697 8.4226562,0.45941697 8.3634891,0.45656071 8.0867249,0.44227869 7.8198511,0.30859957 7.5377061,0.36172842 6.8581453,0.37315344 6.1863882,0.24118859 5.5075643,0.23976046 5.4197843,0.20605503 5.3284572,0.21005403 5.2368145,0.2169093 5.2100545,0.22262181 5.1841585,0.2311912 5.1587425,0.24547322 4.4866914,0.22547844 3.8154191,0.15606807 3.1400584,0.32716611 2.841891,0.34430452 2.5605908,0.48940922 2.2824946,0.6571366 c -0.0135,0.0228512 -0.02706,0.0439885 -0.040608,0.0659826 -0.0102,-0.011425 -0.020376,-0.0228512 -0.031548,-0.0328485 -0.3747452,0.15081753 -0.689319,0.9436661 -0.6167538,1.5882396 0.036348,0.3231152 0.072264,0.6506006 0.1362299,0.9609192 0.2008966,0.9734014 0.5592548,1.7138356 1.2713799,1.8960449 0.04368,-0.00571 0.07602,-0.022851 0.1001639,-0.043131 0.031824,0.017139 0.063648,0.031706 0.095556,0.047416 0.028488,0.011425 0.055368,0.022851 0.079584,0.029135 0.2241142,0.084549 0.4532301,0.1333934 0.6846187,0.1659564 0.018204,0.039704 0.038364,0.077409 0.063768,0.1079714 0.2666039,0.1599579 0.5580621,0.145676 0.8368495,0.2205135 0.1194719,0.031991 0.2638594,0.022851 0.2845294,0.2921233 C 5.1845801,6.4554421 5.0753561,6.6440496 4.7430907,6.650905 3.9615517,6.6680438 3.1815774,6.5580724 2.398224,6.7320264 1.9197303,6.8382841 1.4781486,7.0645105 1.2610148,7.840821 c -0.01824,0.09626 -0.016128,0.1942347 -0.00756,0.2927231 -0.082752,0.2453642 -0.1591979,0.4914709 -0.03852,0.7660845 -0.0102,0.019995 -0.021048,0.038561 -0.033888,0.057699 0.01728,0.2199423 -0.0048,0.4512814 0.061812,0.6571132 0.029784,0.05827 0.044472,0.1422483 0.065376,0.215372 -0.00516,0.089976 -0.026412,0.1779532 -0.105888,0.2622162 z M 69.393238,20.846663 c 0.0061,0.02285 0.01164,0.04028 0.01753,0.06056 -0.005,4.85e-4 -0.009,0.0024 -0.0135,0.0029 -0.0013,-0.02 -0.0023,-0.0417 -0.0042,-0.06399 z M 27.291005,26.05535 c 0.0023,-0.0029 0.0041,-0.0086 0.0062,-0.01138 6.7e-4,0.0029 0.0012,0.0086 0.002,0.01138 -0.0028,1.14e-4 -0.0055,-2.8e-5 -0.0082,2.58e-4 z M 9.204211,0.52682784 c 0.00117,1.1425e-4 0.00228,1.1425e-4 0.00348,2.5707e-4 -3.384e-4,-2.856e-5 -5.904e-4,-2.856e-5 -8.46e-4,-2.856e-5 -8.448e-4,0 -0.0018,-2.5708e-4 -0.00252,-3.7134e-4 z M 16.546336,24.695023 c -6.04e-4,-0.02 -0.003,-0.03714 -0.0072,-0.05428 0.0096,0.0029 0.01925,0.0058 0.02888,0.01138 -0.0078,0.01429 -0.01463,0.02914 -0.02183,0.0437 z M 16.469776,1.4961446 c -4.8e-5,-0.00286 -5.1e-4,-0.00571 -6.06e-4,-0.00857 0.0029,9.712e-4 0.0059,0.00194 0.0089,0.00286 -0.0032,0.00246 -0.0052,0.00286 -0.0082,0.00571 z M 10.670129,0.76970691 c 0,0 8.4e-5,0 1.68e-4,0 0,0 -1.68e-4,1.4282e-4 -1.68e-4,2.5707e-4 1.68e-4,0.005713 -8.7e-5,0.014282 3.6e-5,0.0199948 -0.002,-0.005713 -0.0041,-0.014282 -0.0064,-0.0199948 0.0022,1.4283e-4 0.0042,3.999e-4 0.0064,5.1415e-4 z m -2.2992754,-0.23308164 0.00102,-3.9991e-4 c -2.532e-4,9.7118e-4 -3.372e-4,0.001485 -5.892e-4,0.002456 -4.224e-4,-4.8559e-4 -0.00106,-9.7118e-4 -0.00156,-0.001485 3.372e-4,2.856e-5 7.584e-4,2.856e-5 0.00119,-2.5708e-4 0,0 4.8e-6,-1.1425e-4 8.4e-6,-2.5707e-4 0,0 0,0 0,0 z"
       id="path7274"
       style="fill:#394054;fill-opacity:1;stroke-width:0.104293" />
  </g>
</svg>
