<?xml version="1.0" encoding="UTF-8" standalone="no"?>
<!-- Created with Inkscape (http://www.inkscape.org/) -->

<svg
   width="150mm"
   height="30mm"
   viewBox="0 0 150 30"
   version="1.1"
   id="svg1"
   inkscape:export-filename="brush2.svg"
   inkscape:export-xdpi="12.365511"
   inkscape:export-ydpi="12.365511"
   xmlns:inkscape="http://www.inkscape.org/namespaces/inkscape"
   xmlns:sodipodi="http://sodipodi.sourceforge.net/DTD/sodipodi-0.dtd"
   xmlns="http://www.w3.org/2000/svg"
   xmlns:svg="http://www.w3.org/2000/svg">
  <sodipodi:namedview
     id="namedview1"
     pagecolor="#ffffff"
     bordercolor="#000000"
     borderopacity="0.25"
     inkscape:showpageshadow="2"
     inkscape:pageopacity="0.0"
     inkscape:pagecheckerboard="0"
     inkscape:deskcolor="#d1d1d1"
     inkscape:document-units="mm" />
  <defs
     id="defs1" />
  <g
     inkscape:label="Calque 1"
     inkscape:groupmode="layer"
     id="layer1">
    <path
       style="opacity:0.1;fill:#800000;stroke:#c44949;stroke-width:1.44468"
       d="m 73.252058,108.60044 c -0.53776,-1.40138 -1.815061,-2.01954 -3.130183,-1.51488 -1.439774,0.55249 -2.221714,0.0229 -2.221714,-1.5048 0,-2.17776 -6.434495,-5.979412 -9.109108,-5.38188 -0.63984,0.14294 -4.052906,0.55228 -7.584593,0.90964 -4.977816,0.50369 -6.421247,0.17296 -6.421247,-1.47129 0,-1.166573 -0.533018,-2.121041 -1.184485,-2.121041 -0.651466,0 -3.368988,-1.950324 -6.038937,-4.334053 -2.669948,-2.383729 -5.38747,-4.334053 -6.038936,-4.334053 -0.651467,0 -1.184485,-1.994132 -1.184485,-4.431407 0,-3.661773 0.466392,-4.283379 2.685404,-3.579093 1.56823,0.497737 3.466967,-0.08941 4.564088,-1.411361 1.574795,-1.897512 1.432523,-2.576805 -0.87955,-4.199498 -1.517027,-1.064703 -4.327715,-3.208655 -6.245974,-4.764339 l -3.487742,-2.828514 4.571255,-0.914251 c 5.934227,-1.186846 6.289036,-5.870329 0.598374,-7.898561 -2.185085,-0.778796 -5.404503,-2.630191 -7.154263,-4.11421 -6.151517,-5.217266 -9.697417,-7.75461 -10.836955,-7.75461 -0.632967,0 -1.150848,-0.650108 -1.150848,-1.444684 0,-0.794577 1.021598,-1.444684 2.270218,-1.444684 5.232517,0 8.658133,-7.891451 4.172773,-9.612645 -1.223812,-0.469621 -4.486179,-3.049649 -7.249702,-5.733396 -2.763524,-2.683746 -5.6628703,-4.879539 -6.442992,-4.879539 -0.7801217,0 -1.4184032,-0.719663 -1.4184032,-1.59925 0,-0.879587 0.8942739,-1.256084 1.9872754,-0.83666 1.0930014,0.419424 3.7386758,-0.146049 5.8792768,-1.256606 2.140602,-1.110557 4.334341,-1.913499 4.874975,-1.784315 0.540636,0.129183 4.883621,-0.201367 9.651079,-0.734557 4.767458,-0.53319 11.268538,-1.117872 14.446843,-1.299293 3.178305,-0.181422 6.103791,-0.769896 6.501079,-1.30772 0.397288,-0.537825 11.774177,-1.350185 25.281975,-1.805245 13.507798,-0.45506 36.911684,-1.588701 52.008634,-2.519201 34.72479,-2.1402625 244.65616,-2.0427732 304.82838,0.141558 23.83729,0.865325 56.34269,1.951789 72.23422,2.414365 15.89152,0.462576 29.11039,1.408599 29.37524,2.102274 0.26487,0.693676 1.05583,1.261228 1.7577,1.261228 0.70187,0 3.47417,2.112851 6.16064,4.695224 7.65982,7.363007 22.13268,18.419725 24.11079,18.419725 1.42544,0 1.42435,0.444403 -0.005,2.167026 -0.98916,1.191865 -3.59488,2.167027 -5.7905,2.167027 -2.1956,0 -5.66878,0.869913 -7.71815,1.933142 l -3.72613,1.933143 5.95309,6.01262 c 3.27422,3.306942 7.15204,6.012622 8.6174,6.012622 3.8241,0 3.28219,2.144047 -1.03959,4.113182 -3.3595,1.530689 -3.49383,1.897658 -1.44469,3.946795 1.24256,1.242558 2.2592,2.862867 2.2592,3.600689 0,0.737821 1.30022,1.341492 2.88937,1.341492 3.28978,0 3.88643,2.197631 0.90704,3.340928 -1.09027,0.418379 -4.99092,1.211857 -8.6681,1.763285 -3.67719,0.551427 -6.68578,1.482467 -6.68578,2.068977 0,1.631028 8.50037,10.163021 10.12535,10.163021 0.78766,0 1.43212,0.650108 1.43212,1.444685 0,0.794576 -1.95032,1.444684 -4.33405,1.444684 -5.44268,0 -5.76561,3.329456 -0.64816,6.682532 7.75782,5.083132 -1.06184,7.144742 -28.96787,6.771312 -63.1874,-0.84556 -233.5034,-0.17809 -265.71309,1.04133 -20.71883,0.78439 -71.20533,1.84565 -112.19221,2.35836 -68.241023,0.85363 -74.598158,0.73267 -75.430062,-1.43523 z"
       id="path1"
       transform="scale(0.26458333)" />
  </g>
</svg>
