<?xml version="1.0" encoding="UTF-8" standalone="no"?>
<!-- Created with Inkscape (http://www.inkscape.org/) -->

<svg
   width="600"
   height="44"
   viewBox="0 0 158.75 11.641667"
   version="1.1"
   id="svg1"
   inkscape:export-filename="brush-blue.svg"
   inkscape:export-xdpi="96"
   inkscape:export-ydpi="96"
   xmlns:inkscape="http://www.inkscape.org/namespaces/inkscape"
   xmlns:sodipodi="http://sodipodi.sourceforge.net/DTD/sodipodi-0.dtd"
   xmlns="http://www.w3.org/2000/svg"
   xmlns:svg="http://www.w3.org/2000/svg">
  <sodipodi:namedview
     id="namedview1"
     pagecolor="#ffffff"
     bordercolor="#000000"
     borderopacity="0.25"
     inkscape:showpageshadow="2"
     inkscape:pageopacity="0.0"
     inkscape:pagecheckerboard="0"
     inkscape:deskcolor="#d1d1d1"
     inkscape:document-units="mm" />
  <defs
     id="defs1" />
  <g
     inkscape:label="Calque 1"
     inkscape:groupmode="layer"
     id="layer1">
    <path
       d="M 2.601124,4.6095019 C 1.3631935,4.8728599 1.0603391,5.175303 1.5476953,5.6006102 c 0.049362,0.21955 0.3476717,0.406309 0.7327662,0.581538 0.1906141,0.09045 0.4704872,0.1452732 0.7929676,0.1832451 0.3830832,0.077031 0.8294589,0.09578 1.2773867,0.1133553 0.164457,0.032439 0.4475281,-0.02317 0.5533427,0.06305 -0.3979163,0.103877 -0.8488153,0.1898161 -1.088073,0.3387841 -0.025569,0.0079 -0.043658,0.01613 -0.056086,0.024611 -0.031875,0.01402 -0.063909,0.02804 -0.09595,0.04206 0.077015,0.1682431 0.1034105,0.3353301 -0.2104107,0.4940891 0,0 0.030873,0.0054 0.046942,0.0086 0.1473991,0.02557 -0.030334,0.1026976 0.1830177,0.117845 0.1067009,0.042 0.105933,0.09305 0.1070298,0.143985 -0.00959,0.02485 -0.019354,0.049709 -0.029309,0.07457 0.1251646,0.128947 0.2496286,0.258051 0.5271406,0.3643783 -0.00502,0.03526 -0.010111,0.070531 -0.015455,0.105815 -0.0422,0.010835 -0.085502,0.021239 -0.1243937,0.03322 -0.2962269,0.09433 -0.5058364,0.201448 -0.5595354,0.331562 -0.00899,0.05476 -0.015267,0.09735 -0.011962,0.1312101 -0.1269376,0.184906 -0.021047,0.3633071 0.146033,0.5400581 -0.018231,0.03623 -0.031708,0.07297 -0.036768,0.1105266 0.1421827,0.2875021 0.5166848,0.5245872 1.4292958,0.6449591 0.049681,0.0024 0.1019863,0.0036 0.155578,0.0042 0.2763132,0.06344 0.5831464,0.109173 0.92815,0.132883 0.00615,0.0096 0.012345,0.01914 0.016077,0.03009 0.00462,0.01336 0.082427,0.02209 0.1294754,0.03099 0.3572123,0.06135 0.7600777,0.08324 1.1607339,0.108113 1.1648447,0.07211 2.3553449,0.09657 3.5396461,0.133148 0.282757,0.0088 0.545723,-0.0018 0.804542,-0.04212 1.046092,-0.161792 2.140951,-0.164313 3.240434,-0.138395 1.654393,0.03905 3.303996,0.09082 4.968477,0.104522 0.466067,-3.92e-4 0.936883,-0.01679 1.393923,0.01546 0.127089,0.0079 0.254041,0.0081 0.382247,-0.0042 0.0041,-6.02e-4 0.0084,-0.0018 0.01254,-0.0024 0.394383,0.01312 0.788733,0.02636 1.184923,0.03496 0.255828,0.0054 0.511706,0.01084 0.767547,0.01637 0.365884,0.02046 0.761951,0.0092 1.123445,0.03448 0.257278,0.01805 0.510272,0.02166 0.760381,0.006 1.937676,0.04122 3.875595,0.08201 5.813484,0.122971 0.06726,0.01124 0.135869,0.01504 0.205416,0.01444 0.291656,0.02281 0.582512,0.0482 0.890377,-0.01101 0.0358,0.0024 0.07003,5.84e-4 0.102155,-0.0054 0.239725,0.05512 0.507661,0.05584 0.779436,0.04922 0.184695,0.0075 0.358677,0.02323 0.53659,0.03484 1.957709,0.112825 3.961068,0.130144 5.955548,0.162363 1.153811,0.0186 2.305767,0.04285 3.463656,0.05266 2.90089,0.02443 5.778729,0.127816 8.692537,0.112969 0.679401,-0.01318 1.35496,0.01005 2.035362,-0.0087 0.349582,0.0012 0.6997,-4.2e-5 1.050027,-0.0024 0.07646,0.0042 0.152253,0.01065 0.229276,0.01149 0.0683,5.84e-4 0.136466,0.0012 0.204794,0.0018 0.71481,0.03821 1.442968,0.06278 2.166712,0.03153 0.08537,-0.0036 0.171325,-0.006 0.257473,-0.0073 0.892339,0.0089 1.7845,0.01787 2.676851,0.02678 0.156837,0.02154 0.332135,0.02997 0.520717,0.02798 2.066221,-0.02172 4.108787,0.05199 6.171005,0.04886 0.2126,-3.91e-4 0.425572,-0.0018 0.638515,-0.003 0.451912,0.0066 0.898813,0.04766 1.355941,0.01023 0.07003,0.0024 0.140948,-1.92e-4 0.210691,0.003 0.026,0.01505 0.05024,0.03984 0.0789,0.0399 l 9.575212,0.01492 c 0.202443,-0.05127 0.40847,-0.0048 0.613016,-0.01252 0.07652,-0.003 0.161417,0.0018 0.203035,-0.01528 0.08641,-1.57e-4 0.172474,6.01e-4 0.259133,-0.0024 0.615537,-0.03869 1.229552,0.003 1.844981,-0.02558 0.0078,-0.0012 0.01602,-0.0018 0.02397,-0.0024 0.214802,-0.0024 0.429276,-0.0085 0.643834,-0.0216 0.05819,-0.0012 0.116136,-0.003 0.172852,-0.007 0.374182,3.91e-4 0.748334,0.0012 1.122511,0.0012 0.151212,0.01084 0.314029,0.0066 0.471574,0.0092 0.147832,0.0024 0.29637,0.0018 0.445151,0.0012 0.127425,0.0048 0.254912,0.0097 0.383388,0.01174 0.191356,0.003 0.383265,0.0042 0.575327,0.0042 0.01859,0.0012 0.03739,0.0018 0.05591,0.0036 0.155391,0.01089 0.311663,0.01318 0.471197,1.02e-4 0.01611,-0.0018 0.03257,-0.0036 0.04903,-0.006 0.455357,-0.003 0.910321,-0.0081 1.361129,-0.0036 0.765834,0.0072 1.533332,0.04158 2.300551,0.03448 0.395506,0.0042 0.792199,0.003 1.189084,0.0024 0.193202,0.003 0.386199,0.0042 0.578951,-1.98e-4 0.17425,1.98e-4 0.348256,0.0012 0.522051,0.003 0.06919,3.91e-4 0.138119,5.83e-4 0.207514,1.8e-5 1.411026,5.83e-4 2.818447,-0.06676 4.230984,-0.07756 0.99445,-0.0076 1.996483,-0.03593 2.993198,-0.06458 0.13978,-0.0042 0.27919,-0.01065 0.4157,-0.02064 0.76222,-0.02515 1.52265,-0.05885 2.27973,-0.103877 0.0739,0.01065 0.15641,0.01739 0.2548,0.01691 0.0684,-3.91e-4 0.13653,-0.0024 0.20404,-0.0078 1.29943,-0.03948 2.59268,-0.121191 3.89935,-0.116828 0.98594,-0.0012 1.96363,-0.06046 2.94618,-0.08684 2.43808,-0.06544 4.87231,-0.155251 7.30924,-0.230135 1.78833,-0.05494 3.5783,-0.06181 5.36686,-0.120679 0.9782,-0.0322 1.97408,-0.06271 2.93951,-0.06569 0.87749,-0.003 1.75629,-0.0099 2.63572,-0.02437 0.15387,-0.01149 0.30585,-0.02269 0.46417,-0.02624 1.42775,-0.03195 2.85503,-0.04351 4.28245,-0.06607 0.91517,-0.0145 1.83642,-0.02184 2.75004,-0.0745 0.19802,-3.91e-4 0.37986,-0.01258 0.55204,-0.03165 0.53595,0.0018 1.07083,-0.01914 1.60571,-0.04399 0.55983,-0.02738 1.12191,0.05807 1.68068,-0.02888 0.0773,-5.89e-4 0.18541,0.0091 0.22767,-0.003 0.53107,-0.1522299 1.19731,-0.1500039 1.83447,-0.188637 0.25339,-0.01541 0.43674,-0.08091 0.47431,-0.1687779 0.0465,-0.02395 0.0928,-0.048021 0.1394,-0.07198 0.18472,-0.172275 0.18311,-0.344688 0.088,-0.5171431 -0.66963,-0.1049243 -0.67383,0.1074701 -0.93622,0.212383 -0.20293,-0.1097154 -0.18694,-0.2717771 -0.69985,-0.2618961 -0.44491,0.0085 -0.50345,-0.076539 -0.58324,-0.1694529 6e-5,-0.02918 -5e-4,-0.05831 -0.0932,-0.07564 -0.0241,-0.007 -0.0481,-0.01384 -0.0721,-0.02076 -0.0163,-0.01763 -0.0359,-0.03508 -0.0559,-0.052049 -0.10978,-0.0718 -0.3087,-0.08956 -0.53973,-0.08377 0.0573,-0.018719 0.20102,0.0036 0.28002,-0.010531 0.0234,1.98e-4 0.0468,-1.93e-4 0.0703,1.08e-4 0.12981,-6.02e-4 0.25995,-0.0012 0.38967,-0.0093 1.31678,-0.05386 2.62728,-0.129808 3.94933,-0.16722 1.09645,-0.04603 2.09856,-0.22455 3.20957,-0.2571361 0.38735,-0.011373 0.57904,-0.1139093 0.66943,-0.2325664 0.1642,-0.215855 -0.0138,-0.406194 -0.33273,-0.5859611 -0.18202,-0.1028238 -0.12513,-0.144124 0.28267,-0.162887 0.46639,-0.02154 0.94628,-0.01216 1.39921,-0.06996 0.16665,-0.02491 0.34308,-0.02828 0.5206,-0.03232 0.12804,-0.003 0.25428,-0.0075 0.37988,-0.0127 0.63027,-0.01504 1.24936,-0.05488 1.81517,-0.1473791 0.33786,-0.05518 0.84926,-0.07727 1.03308,-0.2174981 0.0291,-0.0094 0.0545,-0.0195 0.0744,-0.03105 0.10081,-0.010005 0.20172,-0.02004 0.30245,-0.02997 0.14594,-0.0018 0.29249,0.0018 0.43873,0.0024 0.18531,0.01547 0.41607,6.009e-4 0.60918,0.010006 1.12321,-0.034239 2.23482,-0.0862 3.34774,-0.1511831 0.6211,0.0079 0.98269,-0.128249 1.34035,-0.2519 l 0.0122,-0.07274 c -0.32444,-0.06155 -0.70762,-0.131457 -0.94374,-0.2420501 -0.18124,-0.08481 -0.41728,-0.06242 -0.66093,-0.017149 -0.43608,-0.05073 -0.48769,0.1022335 -0.75428,0.14171 -0.35324,0.05873 -0.4659,0.011618 -0.43684,-0.119734 -0.0676,0.131385 -0.41516,0.085171 -0.57424,0.1358021 -0.0382,0.0036 -0.0503,0.011315 -0.0367,0.02251 -0.34609,0.1646441 -0.53384,0.1678091 -0.90405,0.04622 -0.10815,-0.03538 -0.26334,-0.1339601 -0.44379,-0.087491 -0.22777,0.05861 -0.75113,-0.02184 -0.72805,0.1561541 0.006,0.04194 -0.18575,0.140639 -0.39124,0.07143 -0.18491,-0.06248 -0.34477,-0.0278 -0.50472,-0.013301 -0.0239,-0.010473 -0.047,-0.021061 -0.0716,-0.03135 -0.30518,-0.1258719 -0.62691,-0.243981 -1.2153,-0.240407 -0.002,0.0018 -0.005,0.003 -0.007,0.0042 -0.10167,-0.03177 -0.20336,-0.06353 -0.30501,-0.095271 -0.26351,-0.061919 -0.48288,-0.141633 -0.80063,-0.181656 -0.0327,-0.01059 -0.0652,-0.021061 -0.10405,-0.02804 -0.0358,-0.01733 -0.0836,-0.0334 -0.14829,-0.04778 -0.41196,-0.0553 -0.71802,0.032979 -1.03177,0.093179 -0.34294,0.06588 -0.73965,0.125529 -1.05353,0.05548 -0.80166,-0.17872 -1.6954,-0.126498 -2.5987,-0.1061819 -0.90178,0.02034 -1.81159,0.05633 -2.70023,0.06421 -1.00085,0.0087 -2.03004,0.02112 -2.98168,0.07812 -1.56027,0.09359 -3.09415,0.02612 -4.6318,0.09658 -1.06415,-0.003 -2.12941,0.021421 -3.19473,0.03972 0.32256,-0.0148 0.64495,-0.03153 0.96839,-0.019439 2.49347,-0.070311 4.9784,-0.1864591 7.47214,-0.257335 1.22006,-0.0346 2.43405,-0.1028122 3.65174,-0.1354822 3.15058,-0.08446 6.28621,-0.221313 9.42228,-0.359516 0.26062,-0.011548 0.50488,-0.033339 0.70939,-0.09049 0.12284,-0.04634 0.26489,-0.084319 0.4245,-0.1154966 0.23109,-0.03623 0.46557,-0.06764 0.74162,-3.01e-5 0.11534,0.028281 0.24061,-0.02275 0.28115,-0.0683 0.0577,-0.06452 0.10846,-0.128791 0.0523,-0.189203 0.0122,-0.03105 0.0161,-0.06216 0.003,-0.09278 -0.23915,-0.3230541 -0.97227,-0.5275182 -1.78294,-0.7113102 -0.21903,-0.04965 -0.48815,-0.070061 -0.77517,-0.05879 -1.25209,0.04941 -2.51095,0.06771 -3.75797,0.1404231 -0.3349,0.0349 -0.68191,0.02335 -1.0649,0.04682 0.11907,-0.011128 0.19677,-0.01216 0.27136,-0.01751 1.12064,-0.07886 2.25547,-0.130391 3.37896,-0.204644 0.3387,-0.02245 0.72393,-0.024791 0.91542,-0.145796 0.0297,-0.030571 0.0239,-0.0553 -0.003,-0.07679 0.0682,-0.054521 0.0427,-0.1116043 -0.0122,-0.161954 -0.0555,-0.05073 0.018,-0.07191 0.10249,-0.09056 0.0408,1.031e-4 0.0815,-5.829e-4 0.12253,-0.003 0.11427,-0.0079 0.21259,-0.02552 0.29906,-0.05031 0.0173,-0.006 0.0366,-0.012399 0.0554,-0.019259 0.16837,-0.01655 0.25567,-0.072061 0.19672,-0.09604 -0.2326,-0.0948 -0.0396,-0.1992521 -0.0997,-0.2956381 -0.0248,-0.03966 -0.0811,-0.06778 -0.16509,-0.090569 0.003,-0.02118 0,-0.04224 -0.003,-0.06317 -0.18624,-0.09055 -0.47081,-0.141614 -0.80397,-0.1602509 -1.28385,-0.07172 -2.57986,-0.027921 -3.86135,0.05374 -0.54367,0.0346 -1.09814,0.06944 -1.63171,0.07857 -0.7321,0.0124 -0.9563,-0.18913 -1.10982,-0.3667301 -0.11323,-0.130789 -0.34069,-0.234865 -0.73597,-0.2457511 -0.95347,-0.02624 -1.94746,-0.157802 -2.85854,0.09394 -0.12355,0.03412 -0.30257,0.02684 -0.45911,0.03442 -0.0815,-0.0042 -0.15501,-0.0084 -0.22485,-0.01173 -0.19601,-0.05193 -0.50105,-0.04874 -0.73599,-0.07727 -0.37563,-0.045551 -0.63993,0.02323 -0.68762,0.126335 l -0.0579,-1.02e-4 c -0.001,0 -0.004,0.0048 -0.004,0.0048 -0.10679,-0.0012 -0.22666,0.01222 -0.34726,0.02443 -0.14958,0.0099 -0.27391,0.019439 -0.37217,0.02762 -0.17625,5.841e-4 -0.3231,-0.02901 -0.38947,-0.140609 -0.005,-0.0087 -0.24333,-0.01631 -0.32902,-5.84e-4 -0.32069,0.05861 -0.45936,0.136957 -0.24091,0.2414901 -0.0245,0.0048 -0.049,0.0096 -0.0752,0.01529 -0.0299,0.0065 -0.0607,0.01336 -0.0922,0.0204 -0.25482,0.0036 -0.47584,0.0071 -0.69601,0.010344 -0.002,0.03081 0.0185,0.06247 -0.004,0.092571 -0.0186,5.83e-4 -0.0364,0.0018 -0.0554,0.0018 -0.61378,0.07191 -1.11797,0.04062 -1.48243,-0.1261671 -0.0531,-0.02437 -0.16826,-0.034599 -0.21295,-0.05849 -0.2695,-0.143618 -0.66613,-0.132835 -1.10693,-0.076089 -0.009,0.0036 -0.0198,0.00641 -0.0297,0.0096 -0.31363,-0.013481 -0.64412,-0.01324 -0.71618,-0.149323 -0.0274,-0.05199 -0.2279,-0.07715 -0.42425,-0.071 -0.4659,0.01432 -0.41901,-0.06474 -0.27499,-0.1550339 0.19596,-0.1226172 0.37804,-0.2445772 0.28638,-0.3826052 -0.0263,-0.006 -0.0561,-0.0084 -0.0896,-0.0076 -0.63609,-0.1591621 -1.42271,-0.1608052 -2.19348,-0.1787791 -0.0704,-0.02347 -0.18126,-0.04255 -0.24002,-0.06751 -0.5251,-0.1428901 -1.13104,-0.2456481 -1.83662,-0.2773011 -1.38405,-0.06208 -2.78842,-0.07815 -4.19481,-0.08484 -0.31159,-0.0018 -0.6492,0.01775 -0.89392,-0.0497101 -0.29573,-0.08148 -0.67004,-0.09337 -1.02605,-0.14552604 l -1.41876,-0.0024 c -0.0841,-1.56e-4 -0.18552,0.01204 -0.28394,0.01276 -2.06813,0.01643 -4.13852,0.04646 -6.20245,0.10497196 -3.36951,0.0957201 -6.73771,0.16652808 -10.10608,0.18484618 -3.20967,0.01739 -6.419398,0.043571 -9.62971,0.0701 -0.649815,0.0054 -1.302465,-0.01938 -1.946743,-0.0012 -3.038791,0.08696 -6.069111,0.06024 -9.101351,0.078829 -2.679565,0.01637 -5.35825,0.0054 -8.034677,-0.0079 -3.424248,-0.01709 -6.860831,0.05241 -10.283603,0.021419 -0.648818,-0.006 -1.299846,-0.0042 -1.951626,-0.0018 -0.33517,0.0075 -0.669056,0.0078 -1.001362,0.0048 -0.126462,-0.0012 -0.238184,0.0036 -0.338311,0.013841 -0.270152,0.007 -0.538691,0.03015 -0.804452,0.08368 -0.125819,0.02528 -0.244712,0.02503 -0.382016,0.003 -0.891073,-0.1422699 -1.860413,-0.092279 -2.821071,-0.05982 -0.377299,0.019801 -0.738018,-0.053801 -1.117261,-0.02407 -0.09272,-0.01613 -0.202218,-0.026661 -0.341099,-0.02768 -3.020706,-0.027019 -6.040884,-0.06352 -9.064727,-0.08331 -1.846289,-0.01203 -3.693941,-0.0127 -5.536147,-0.04652 -0.737867,-0.013479 -1.49073,-0.0266 -2.240946,0.01661 -0.234804,0.020341 -0.469794,0.010835 -0.70451,0.01384 -0.72786,0.0093 -1.427437,-0.05398 -2.15928,-0.04212 -0.200196,0.003 -0.391429,0.01438 -0.57965,0.02846 -0.370574,-0.0036 -0.741043,-0.0079 -1.11118,-0.01306 -0.116136,-0.0018 -0.231871,-0.0024 -0.347764,-0.0036 -0.08854,-0.0085 -0.178186,-0.01571 -0.268395,-0.018719 -0.351326,-0.011861 -0.688436,-0.0036 -1.024404,0.01655 -0.151641,0.0012 -0.303317,0.0018 -0.455415,0.0036 -0.366547,0.0036 -0.731867,-1.561e-4 -1.097333,-0.0054 -0.07809,-0.0079 -0.171179,-0.0089 -0.254952,-0.011373 -0.503332,-0.0145 -1.023079,0.01763 -1.515679,-0.02588 -0.06295,-0.0054 -0.127639,-0.0094 -0.193429,-0.01113 -1.566977,0.01318 -3.100892,-0.0690901 -4.659841,-0.08381 -0.06925,6.02e-4 -0.132167,0.003 -0.190618,0.006 -0.357835,-0.04194 -0.738497,-0.0370701 -1.119985,-0.03039 -0.277648,-0.01204 -0.536505,-0.055 -0.833306,-0.03599 -0.428177,-0.01643 -0.859151,-0.0200401 -1.293459,-0.0069 -0.449057,-0.04122 -0.909927,-0.05867 -1.37534,-0.06666 -3.36e-4,-3.8601e-4 -9.94e-4,-5.84e-4 -0.0012,-6.02e-4 -0.316254,-0.0325094 -0.654517,-0.0143294 -0.981055,-0.0231194 -0.578974,-0.04267 -1.175341,-0.03978 -1.771472,-0.03448 -0.251091,-0.03948 -0.526456,-0.02774 -0.800453,-0.01902 -0.274306,0.0320101 -0.165832,0.09779 -0.16528,0.15362604 0.0011,0.06203 0.135671,0.12648596 -0.111195,0.19999806 -0.195749,-0.06275 -0.307128,-0.12732203 -0.239796,-0.21840006 0.03723,-0.05043 0.149515,-0.10782505 -0.09149,-0.13710103 -0.117834,-5.84e-4 -0.235831,-0.0012 -0.353483,-0.0018 -0.55038,-0.0054 -1.081098,-0.05921 -1.64218,-0.03797 -1.351403,0.004801 -2.68728,-0.04814 -4.037217,-0.0488601 -0.174569,-0.01342 -0.35618,-0.01192 -0.538424,-0.0087 -0.0532,0.0018 -0.104713,0.006 -0.155268,0.0108295 -1.3364656,-0.008399 -2.6713833,-0.03581 -4.0144325,0.0326801 -0.5929441,0.0072 -1.1523509,0.06492 -1.7053794,0.13202203 -0.026746,0.0088 -0.053825,0.01763 -0.080738,0.02642 -0.020168,-0.0042 -0.040508,-0.0089 -0.062732,-0.01318 -0.7452344,0.06034 -1.3708059,0.37755606 -1.2264993,0.63544406 0.072261,0.1292781 0.1437063,0.2603081 0.270905,0.3844592 0.3995096,0.3894591 1.1121552,0.6856981 2.5283138,0.7586082 0.08686,-0.0024 0.1511836,-0.0087 0.199203,-0.01727 0.063284,0.0063 0.1265658,0.01264 0.1900199,0.01896 0.056647,0.0048 0.1100877,0.00911 0.1582714,0.011677 0.4456851,0.03382 0.9013129,0.05338 1.3614584,0.06642 0.036224,0.01595 0.076316,0.03093 0.1267907,0.043209 0.5301793,0.06405 1.109781,0.05831 1.6641902,0.08827 0.2375858,0.01282 0.5247188,0.0094 0.5658258,0.1168871 0.07617,0.200035 -0.141005,0.275496 -0.8017626,0.278234 -1.5542019,0.0065 -3.1052861,-0.03713 -4.6630913,0.0325 -0.9515512,0.04248 -1.8296951,0.1330151 -2.2614987,0.4436122 -0.036259,0.038509 -0.032064,0.07772 -0.014961,0.1171232 -0.1645561,0.09815 -0.3165865,0.1966339 -0.076605,0.3065109 -0.020341,0.0077 -0.041852,0.01541 -0.067383,0.02305 0.034371,0.08799 -0.00956,0.180549 0.1229435,0.262913 0.059234,0.02329 0.088439,0.05687 0.1299924,0.08612 -0.010004,0.035991 -0.052535,0.07124 -0.2105549,0.1048952 z M 138.20695,8.9083033 c 0.0124,0.0086 0.0232,0.01607 0.0349,0.02419 -0.009,1.989e-4 -0.0178,0.0012 -0.0267,0.0012 -0.002,-0.0084 -0.005,-0.01673 -0.008,-0.02563 z M 54.480894,10.99228 c 0.0044,-0.0018 0.0081,-0.003 0.01239,-0.0048 0.0015,0.0018 0.0024,0.003 0.004,0.0048 -0.0054,4.2e-5 -0.01086,-1.8e-5 -0.01631,1.03e-4 z M 18.512829,0.77840682 c 0.0024,4.9e-5 0.0046,4.9e-5 0.0067,1.03e-4 -6.96e-4,0 -0.0011,0 -0.0017,-6e-6 -0.0017,0 -0.0035,-1.03e-4 -0.0052,-1.51e-4 z M 33.113651,10.448022 c -0.0012,-0.0077 -0.006,-0.01492 -0.01423,-0.02172 0.0192,0.0018 0.03827,0.0024 0.05744,0.0042 -0.01551,0.0061 -0.02911,0.01168 -0.0434,0.01745 z M 32.961413,1.16623 c -9.5e-5,-0.0012 -9.94e-4,-0.0024 -0.0012,-0.0036 0.0058,3.91e-4 0.01163,6.019e-4 0.01758,0.0012 -0.0063,0.0012 -0.0101,0.0018 -0.0162,0.0024 z M 21.428015,0.87558684 c 0,0 1.68e-4,0 3.36e-4,0 0,0 -3.36e-4,5.401e-5 -3.36e-4,1.09e-4 3.36e-4,0.0024 -1.67e-4,0.0054 7.5e-5,0.0082 -0.0041,-0.003 -0.0083,-0.0054 -0.01239,-0.0085 0.0041,5.4e-5 0.0083,1.5601e-4 0.01239,1.9801e-4 z m -4.57242,-0.09327 0.002,-1.57e-4 c -4.97e-4,3.9201e-4 -6.96e-4,5.84e-4 -0.0011,0.0012 -8.46e-4,-1.9301e-4 -0.0021,-3.91e-4 -0.0031,-5.84e-4 6.96e-4,0 0.0015,5.99e-6 0.0024,-1.0201e-4 0,0 9e-6,-5.4e-5 1.8e-5,-1.0199e-4 0,0 0,0 0,0 z"
       id="path7274"
       style="opacity:0.098;fill:#055394;fill-opacity:1;stroke-width:0.0930281" />
  </g>
</svg>
