<?xml version="1.0" encoding="UTF-8" standalone="no"?>
<!-- Created with Inkscape (http://www.inkscape.org/) -->

<svg
   width="400"
   height="41"
   viewBox="0 0 105.83333 10.847917"
   version="1.1"
   id="svg1"
   xmlns:inkscape="http://www.inkscape.org/namespaces/inkscape"
   xmlns:sodipodi="http://sodipodi.sourceforge.net/DTD/sodipodi-0.dtd"
   xmlns="http://www.w3.org/2000/svg"
   xmlns:svg="http://www.w3.org/2000/svg">
  <sodipodi:namedview
     id="namedview1"
     pagecolor="#ffffff"
     bordercolor="#000000"
     borderopacity="0.25"
     inkscape:showpageshadow="2"
     inkscape:pageopacity="0.0"
     inkscape:pagecheckerboard="0"
     inkscape:deskcolor="#d1d1d1"
     inkscape:document-units="mm" />
  <defs
     id="defs1" />
  <g
     inkscape:label="Calque 1"
     inkscape:groupmode="layer"
     id="layer1">
    <path
       d="M 1.2523481,4.4684586 C 0.43914439,4.6967997 0.24019777,4.9590239 0.56034423,5.3277722 0.59277023,5.5181245 0.78873203,5.68005 1.041703,5.831978 c 0.1252151,0.07842 0.3090649,0.1259554 0.5209048,0.1588743 0.2516492,0.066784 0.5448757,0.083046 0.8391219,0.098283 0.1080323,0.028112 0.2939836,-0.020106 0.3634943,0.054667 -0.2613941,0.090061 -0.5575922,0.1645725 -0.7147613,0.2937317 -0.016801,0.00681 -0.028679,0.013998 -0.036842,0.021345 -0.020937,0.012186 -0.041983,0.024295 -0.063029,0.036466 0.05059,0.1458729 0.067929,0.2907385 -0.1382198,0.4283853 0,0 0.020283,0.0048 0.030837,0.00743 0.096827,0.022181 -0.019924,0.08904 0.1202253,0.1021716 0.070094,0.036434 0.069588,0.080679 0.070312,0.124839 -0.00631,0.021562 -0.01272,0.043108 -0.019255,0.064655 0.082222,0.111802 0.163983,0.2237341 0.346282,0.3159229 -0.00327,0.030581 -0.00662,0.061147 -0.010149,0.091741 -0.027721,0.00938 -0.056167,0.018403 -0.081715,0.02884 -0.1945925,0.081788 -0.3322865,0.1746575 -0.3675617,0.287466 -0.00592,0.047459 -0.010032,0.084407 -0.00786,0.1137617 -0.083387,0.1603174 -0.013826,0.3149985 0.09593,0.4682427 -0.01198,0.031418 -0.020828,0.063269 -0.024154,0.095833 0.0934,0.2492701 0.3394135,0.4548279 0.9389126,0.5591921 0.032636,0.00217 0.066994,0.00325 0.1021999,0.00372 0.1815115,0.055 0.3830721,0.094659 0.6097066,0.1152125 0.00405,0.00829 0.0081,0.016622 0.010562,0.026114 0.00304,0.011598 0.05415,0.019162 0.085054,0.026873 0.2346542,0.053189 0.4992994,0.072172 0.7624928,0.093738 0.7651917,0.062518 1.5472383,0.083726 2.325212,0.1154417 0.1857449,0.00766 0.3584883,-0.00178 0.5285078,-0.036535 0.6871836,-0.14028 1.4064025,-0.1424656 2.1286584,-0.1199909 1.0867794,0.033895 2.1704124,0.078748 3.2638194,0.090621 0.306162,-3.383e-4 0.615443,-0.014578 0.915675,0.013386 0.08348,0.00681 0.166882,0.00697 0.251101,-0.00379 0.0027,-7.277e-4 0.0055,-0.00147 0.0082,-0.00217 0.259071,0.01135 0.518123,0.022878 0.778381,0.030326 0.168055,0.0048 0.336142,0.00942 0.504205,0.014184 0.240352,0.017714 0.50053,0.00797 0.737998,0.029893 0.169008,0.015639 0.335202,0.018767 0.4995,0.00503 1.272869,0.035746 2.545898,0.071112 3.818908,0.1066225 0.04419,0.00975 0.08925,0.013022 0.134939,0.012542 0.191591,0.01975 0.382656,0.041769 0.584894,-0.00953 0.02351,0.00217 0.046,3.639e-4 0.0671,-0.0048 0.157478,0.047792 0.333485,0.048427 0.512014,0.042667 0.121329,0.0065 0.23562,0.020114 0.352489,0.030218 1.286032,0.097819 2.602049,0.1128379 3.912233,0.1407708 0.757946,0.016111 1.514672,0.037131 2.275297,0.045679 1.905609,0.021198 3.796078,0.1108241 5.710174,0.09795 0.446305,-0.01142 0.89008,0.0087 1.337043,-0.0075 0.22964,7.27e-4 0.459635,-3.3e-5 0.689767,-0.0018 0.05022,0.0036 0.100014,0.0092 0.150612,0.0099 0.04488,3.64e-4 0.08965,0.0011 0.13453,0.0018 0.469563,0.03313 0.947895,0.05443 1.423325,0.02735 0.05608,-0.0033 0.112546,-0.0051 0.169135,-0.0063 0.586182,0.0077 1.17225,0.01553 1.75844,0.02323 0.103028,0.01869 0.218182,0.026 0.342061,0.02426 1.357311,-0.0188 2.699084,0.04508 4.053765,0.04237 0.139662,-3.39e-4 0.27956,-0.0015 0.419444,-0.0026 0.296865,0.0057 0.590439,0.0413 0.890724,0.0088 0.04603,0.0018 0.0926,-1.68e-4 0.138408,0.0026 0.01707,0.01305 0.03299,0.03454 0.05183,0.03458 l 6.290006,0.01298 c 0.132988,-0.04447 0.268326,-0.0041 0.402693,-0.01084 0.05027,-0.0026 0.10604,0.0015 0.133377,-0.01324 0.05677,-1.34e-4 0.113299,7.28e-4 0.170226,-0.0022 0.404352,-0.03353 0.8077,0.0029 1.211978,-0.02215 0.0052,-0.0011 0.01054,-0.0015 0.01574,-0.0022 0.141107,-0.0022 0.281997,-0.0074 0.422942,-0.01873 0.03824,-0.0011 0.07629,-0.0026 0.11355,-0.006 0.245801,3.38e-4 0.491581,7.27e-4 0.737382,0.0011 0.09933,0.0094 0.206285,0.0057 0.309775,0.008 0.09712,0.0022 0.194693,0.0018 0.292428,0.0011 0.0837,0.0043 0.167452,0.0084 0.251848,0.01018 0.125704,0.0026 0.251766,0.0036 0.377936,0.0036 0.01221,0.0011 0.02457,0.0018 0.03674,0.0029 0.102073,0.0095 0.20473,0.01142 0.309529,9.1e-5 0.01058,-0.0018 0.02137,-0.0033 0.0322,-0.005 0.299125,-0.0029 0.597996,-0.007 0.894134,-0.0033 0.503078,0.0063 1.007255,0.03604 1.511244,0.02993 0.259805,0.0036 0.520397,0.0029 0.781118,0.0022 0.126911,0.0026 0.253694,0.0039 0.380314,-1.71e-4 0.114466,1.71e-4 0.228773,7.28e-4 0.34294,0.0026 0.04546,3.38e-4 0.09073,3.64e-4 0.136312,1.4e-5 0.92691,3.64e-4 1.851451,-0.05788 2.779361,-0.06725 0.653257,-0.0066 1.311499,-0.03116 1.966242,-0.05599 0.09182,-0.0036 0.183409,-0.0092 0.273075,-0.01793 0.500716,-0.02179 1.000244,-0.05104 1.497574,-0.090065 0.04856,0.00924 0.102749,0.015059 0.167377,0.014656 0.0449,-3.384e-4 0.08969,-0.00217 0.134034,-0.00674 0.853602,-0.03422 1.703151,-0.1050772 2.561505,-0.1012913 0.647676,-0.00108 1.289919,-0.052422 1.935361,-0.075292 1.601593,-0.056742 3.200654,-0.1346035 4.80148,-0.1995353 1.174772,-0.047645 2.350606,-0.053583 3.525512,-0.1046266 0.642593,-0.027895 1.29679,-0.054373 1.930994,-0.056959 0.576424,-0.00217 1.153704,-0.00855 1.731406,-0.021128 0.101087,-0.00993 0.200919,-0.019673 0.304919,-0.022731 0.937892,-0.027678 1.875489,-0.037743 2.813163,-0.057284 0.601177,-0.012581 1.206359,-0.018945 1.806524,-0.064593 0.130085,-3.383e-4 0.249531,-0.01087 0.362636,-0.027454 0.352067,0.00178 0.703425,-0.016584 1.054799,-0.038138 0.367754,-0.023714 0.736988,0.050332 1.104049,-0.025054 0.05079,-3.638e-4 0.121798,0.00793 0.149559,-0.00255 0.348857,-0.131985 0.786511,-0.1300502 1.205073,-0.1635505 0.166445,-0.013348 0.286896,-0.070144 0.311572,-0.1463351 0.03061,-0.020803 0.06099,-0.041622 0.09158,-0.062402 0.121346,-0.1493646 0.120279,-0.2988484 0.05787,-0.4483694 -0.439889,-0.090974 -0.442654,0.093178 -0.615019,0.1841384 -0.133302,-0.095128 -0.122803,-0.2356368 -0.459735,-0.2270725 -0.292255,0.00743 -0.330718,-0.066358 -0.38313,-0.1469165 3.9e-5,-0.025309 -4.21e-4,-0.050556 -0.06114,-0.065584 -0.01581,-0.00604 -0.03155,-0.012 -0.04736,-0.018 -0.01067,-0.015275 -0.0236,-0.030442 -0.03677,-0.045129 -0.07213,-0.062247 -0.202789,-0.077642 -0.354551,-0.072629 0.03754,-0.01622 0.132048,0.00294 0.183947,-0.00913 0.01542,1.673e-4 0.03077,-1.711e-4 0.04619,8.68e-5 0.08528,-7.27e-4 0.170752,-0.00108 0.255973,-0.008 0.865002,-0.046716 1.725868,-0.1125429 2.594328,-0.1449818 0.720265,-0.039903 1.37856,-0.1946909 2.108382,-0.2229405 0.254462,-0.00986 0.380381,-0.098764 0.439757,-0.2016372 0.107863,-0.1871564 -0.009,-0.3521802 -0.21857,-0.5080467 -0.11957,-0.089149 -0.08221,-0.1249551 0.185684,-0.1412253 0.306376,-0.018689 0.621616,-0.010545 0.919144,-0.060652 0.109476,-0.021601 0.22537,-0.024512 0.341988,-0.028003 0.08411,-0.00255 0.167045,-0.0065 0.249547,-0.010986 0.414029,-0.013053 0.820713,-0.047614 1.192393,-0.1277841 0.221937,-0.047862 0.557887,-0.066993 0.678634,-0.1885747 0.0191,-0.00814 0.0357,-0.016909 0.0488,-0.026912 0.0662,-0.00869 0.13252,-0.01735 0.19869,-0.025998 0.0958,-0.00147 0.19212,0.00147 0.2882,0.00217 0.12172,0.013417 0.27332,7.269e-4 0.40017,0.00866 0.73784,-0.029714 1.46806,-0.074735 2.19915,-0.1310792 0.408,0.00681 0.64553,-0.1111935 0.88049,-0.2184021 l 0.008,-0.063068 c -0.21314,-0.053374 -0.46486,-0.113976 -0.61997,-0.2098672 -0.11905,-0.073527 -0.2741,-0.054118 -0.43415,-0.014911 -0.28647,-0.043991 -0.32038,0.088643 -0.49551,0.122871 -0.23203,0.050928 -0.30605,0.010034 -0.28695,-0.1038152 -0.0445,0.113911 -0.27272,0.073845 -0.37722,0.1177433 -0.0251,0.00325 -0.033,0.00982 -0.0241,0.019495 -0.22733,0.1427489 -0.35067,0.1454943 -0.59387,0.040073 -0.071,-0.030659 -0.17299,-0.1161508 -0.29152,-0.075858 -0.14962,0.050835 -0.49343,-0.018945 -0.47827,0.1353846 0.004,0.036388 -0.12201,0.1219403 -0.25701,0.061929 -0.12147,-0.054164 -0.22648,-0.024078 -0.331537,-0.011528 -0.0157,-0.00909 -0.0309,-0.018295 -0.047,-0.027167 -0.20049,-0.1091356 -0.411825,-0.2115402 -0.798351,-0.2084418 -0.0016,0.00147 -0.0031,0.00255 -0.0047,0.00387 C 98.999183,5.67949 98.932353,5.651936 98.865577,5.624418 98.69248,5.570726 98.548374,5.501619 98.339634,5.4669148 c -0.02142,-0.00917 -0.04284,-0.018256 -0.06831,-0.024295 -0.02352,-0.01502 -0.05491,-0.028987 -0.09741,-0.041451 -0.270616,-0.047939 -0.471668,0.028584 -0.677767,0.080792 -0.225284,0.057122 -0.485892,0.1088414 -0.692077,0.048102 -0.526612,-0.1549498 -1.113723,-0.1096737 -1.707088,-0.092062 -0.592399,0.017606 -1.190049,0.048861 -1.773802,0.055674 -0.657469,0.00751 -1.333555,0.018326 -1.958692,0.067728 -1.024943,0.081152 -2.032555,0.022653 -3.042652,0.083744 -0.69904,-0.00294 -1.39882,0.01855 -2.09863,0.034437 0.211894,-0.012836 0.423672,-0.027314 0.636142,-0.016839 1.637976,-0.060962 3.270328,-0.1616669 4.908491,-0.2231194 0.80145,-0.02997 1.598937,-0.089138 2.398845,-0.1174669 2.069632,-0.073225 4.129449,-0.1918798 6.189536,-0.3117004 0.17121,-0.010034 0.33166,-0.028878 0.466,-0.078457 0.0807,-0.04019 0.17401,-0.073109 0.27886,-0.1001385 0.15181,-0.031418 0.30583,-0.058655 0.48717,-2.55e-5 0.0758,0.024512 0.15807,-0.019711 0.1847,-0.059212 0.0379,-0.055938 0.0713,-0.111663 0.0344,-0.1640416 0.008,-0.026911 0.0104,-0.053891 0.002,-0.080443 -0.1571,-0.2800943 -0.63869,-0.4573697 -1.17123,-0.6167201 -0.14388,-0.043069 -0.32067,-0.06075 -0.50922,-0.050982 -0.822482,0.042821 -1.649442,0.058699 -2.46862,0.1217512 -0.219988,0.030293 -0.447943,0.020256 -0.699531,0.04057 0.07822,-0.00964 0.12926,-0.01051 0.178261,-0.015165 0.736147,-0.068369 1.481633,-0.1130487 2.219658,-0.1774318 0.222485,-0.019456 0.475545,-0.021492 0.601335,-0.1264097 0.0195,-0.026475 0.0157,-0.047931 -0.002,-0.066576 0.0449,-0.047243 0.028,-0.096764 -0.008,-0.1404181 -0.0365,-0.043964 0.0118,-0.062343 0.0673,-0.078515 0.0267,8.73e-5 0.0535,-3.637e-4 0.0805,-0.00255 0.0751,-0.00691 0.13965,-0.022111 0.19645,-0.043618 0.0113,-0.00506 0.0241,-0.010728 0.0364,-0.016692 0.1106,-0.014328 0.16794,-0.062471 0.12923,-0.083265 -0.1528,-0.082195 -0.026,-0.1727587 -0.0656,-0.2563287 -0.0162,-0.034403 -0.0533,-0.058765 -0.10844,-0.078519 0.002,-0.018329 0,-0.036643 -0.002,-0.054772 -0.12234,-0.078504 -0.309281,-0.1227841 -0.528121,-0.138938 -0.843361,-0.062183 -1.694716,-0.02422 -2.536538,0.046582 -0.357145,0.030002 -0.721379,0.060208 -1.07188,0.068122 C 95.666376,2.8690303 95.519092,2.694289 95.418247,2.5403063 95.343857,2.4269085 95.194451,2.3366724 94.934786,2.3272317 94.308442,2.3044657 93.65549,2.1904139 93.057,2.4086817 c -0.08116,0.029602 -0.198762,0.023274 -0.301594,0.029857 -0.05359,-0.00389 -0.101827,-0.00724 -0.147705,-0.010182 -0.128761,-0.045055 -0.329143,-0.042291 -0.483476,-0.06699 -0.246759,-0.039523 -0.420377,0.020111 -0.451705,0.1095357 l -0.03801,-9.09e-5 c -7.79e-4,0 -0.0023,0.00407 -0.0023,0.00411 -0.07018,-0.00109 -0.14888,0.010619 -0.228119,0.021202 -0.09825,0.00858 -0.179928,0.016838 -0.244476,0.023966 -0.115769,3.636e-4 -0.212245,-0.025129 -0.25584,-0.1219112 -0.0031,-0.00753 -0.159848,-0.01411 -0.216132,-3.636e-4 -0.210664,0.05084 -0.301765,0.1187472 -0.158267,0.2093797 -0.01605,0.00407 -0.03217,0.00836 -0.04938,0.013237 -0.01971,0.00564 -0.03988,0.011601 -0.0606,0.017674 -0.167387,0.00327 -0.312584,0.00615 -0.457211,0.00898 -0.0016,0.026693 0.01215,0.054164 -0.0023,0.080261 -0.01223,3.637e-4 -0.02384,0.00146 -0.03638,0.00146 -0.403195,0.062343 -0.734395,0.035203 -0.973816,-0.1093903 -0.0349,-0.021129 -0.110527,-0.029966 -0.139892,-0.050713 -0.177023,-0.1245223 -0.437583,-0.1151725 -0.727143,-0.065969 -0.0062,0.00291 -0.01301,0.0056 -0.01955,0.00829 C 87.856156,2.4993501 87.639043,2.4995321 87.591717,2.381556 87.573724,2.336465 87.44201,2.314671 87.313023,2.319998 87.006966,2.332435 87.037772,2.263859 87.132378,2.1855804 c 0.128731,-0.10631 0.24834,-0.2120563 0.188123,-0.3317309 -0.01729,-0.00502 -0.03684,-0.00724 -0.05881,-0.00662 C 86.843845,1.7092371 86.327109,1.7078151 85.820779,1.6922285 85.774509,1.6718635 85.701715,1.6553385 85.663112,1.6336935 85.318172,1.5098076 84.920127,1.4207136 84.456629,1.3932678 83.54744,1.3394488 82.6249,1.3255128 81.701028,1.3197128 c -0.204682,-0.00146 -0.426461,0.015383 -0.58722,-0.043087 -0.19426,-0.070645 -0.440146,-0.080952 -0.674005,-0.1261769 l -0.931996,-0.00182 c -0.0553,-1.345e-4 -0.121868,0.010437 -0.186526,0.011092 -1.358565,0.014256 -2.718609,0.040254 -4.07442,0.091014 -2.213443,0.082995 -4.426039,0.144382 -6.638736,0.1602669 -2.108448,0.015092 -4.216942,0.037745 -6.325811,0.060776 -0.42687,0.00462 -0.855597,-0.016801 -1.278826,-7.274e-4 -1.996199,0.075391 -3.986832,0.052226 -5.978728,0.06834 -1.760223,0.014219 -3.519867,0.00469 -5.278022,-0.00688 -2.249409,-0.014801 -4.506918,0.045425 -6.755356,0.018583 -0.426215,-0.00502 -0.85388,-0.00364 -1.282036,-0.00146 -0.220172,0.00647 -0.439504,0.0068 -0.657798,0.00433 -0.08307,-7.274e-4 -0.156463,0.00327 -0.22224,0.011965 -0.177465,0.00604 -0.35387,0.026147 -0.528445,0.072555 -0.08265,0.021929 -0.160754,0.021711 -0.250954,0.00255 -0.58535,-0.1233513 -1.222113,-0.080013 -1.853173,-0.051873 -0.247851,0.017165 -0.484808,-0.046636 -0.733935,-0.020874 -0.06091,-0.014001 -0.132839,-0.023129 -0.224073,-0.024002 -1.984317,-0.02342 -3.968288,-0.055073 -5.954669,-0.072234 -1.212836,-0.010401 -2.426569,-0.011019 -3.636725,-0.040337 -0.484708,-0.01171 -0.979268,-0.023056 -1.472088,0.014438 -0.154244,0.017637 -0.308611,0.00938 -0.462797,0.011965 -0.478135,0.00804 -0.937692,-0.046811 -1.418443,-0.036527 -0.13151,0.00291 -0.257132,0.01251 -0.380776,0.024656 -0.243431,-0.00327 -0.486795,-0.00688 -0.72994,-0.011346 -0.07629,-0.00146 -0.152318,-0.00218 -0.228448,-0.00327 -0.05817,-0.00742 -0.117052,-0.013638 -0.17631,-0.016255 -0.230789,-0.010292 -0.452238,-0.00327 -0.672938,0.014365 -0.09961,7.274e-4 -0.199249,0.00182 -0.299164,0.00327 -0.240787,0.00327 -0.480768,-1.345e-4 -0.720845,-0.00447 -0.0513,-0.00688 -0.112448,-0.00775 -0.167478,-0.00985 -0.330643,-0.012583 -0.672066,0.015274 -0.995657,-0.022438 -0.04134,-0.00469 -0.08385,-0.00818 -0.127065,-0.00964 -1.029356,0.011419 -2.036994,-0.059906 -3.061076,-0.072664 -0.0455,7.272e-4 -0.08682,0.00255 -0.125217,0.00509 -0.235064,-0.036366 -0.485123,-0.032148 -0.735726,-0.026366 -0.182387,-0.010437 -0.352432,-0.047662 -0.547402,-0.031202 -0.281271,-0.014219 -0.564381,-0.017347 -0.849681,-0.006 -0.294987,-0.035749 -0.597736,-0.050851 -0.903467,-0.05779 -2.21e-4,-3.381e-4 -6.67e-4,-3.636e-4 -7.79e-4,-7.273e-4 -0.207749,-0.028184 -0.429957,-0.012401 -0.64446,-0.020038 -0.380332,-0.036981 -0.772088,-0.034475 -1.16369,-0.029857 -0.164944,-0.034221 -0.345832,-0.024075 -0.525822,-0.016474 -0.180193,0.027711 -0.108936,0.084785 -0.108574,0.1331957 7.71e-4,0.053779 0.08912,0.1096666 -0.07305,0.1734024 -0.128589,-0.054404 -0.201753,-0.110394 -0.157522,-0.18936 0.02445,-0.043705 0.09822,-0.093487 -0.0601,-0.1188673 -0.0774,-3.637e-4 -0.154918,-0.00109 -0.232204,-0.00146 -0.361549,-0.00491 -0.7101797,-0.05135 -1.0787577,-0.032912 -0.8877432,0.00407 -1.7652887,-0.04176 -2.6520701,-0.042338 -0.1146749,-0.011637 -0.2339749,-0.010328 -0.3536917,-0.00756 -0.03495,0.00182 -0.068785,0.00506 -0.1019974,0.00942 -0.8779319,-0.00731 -1.7548457,-0.031057 -2.637102,0.028329 -0.3895083,0.00622 -0.7569851,0.056288 -1.120273,0.1144633 -0.017572,0.00767 -0.035355,0.015274 -0.053036,0.022947 -0.013249,-0.00386 -0.026608,-0.00771 -0.041204,-0.011419 -0.4895442,0.052324 -0.900485,0.3273525 -0.8056894,0.5509442 0.047475,0.1120886 0.094402,0.2256937 0.1779589,0.3333347 0.2624402,0.3376696 0.7305809,0.5945148 1.6608632,0.6577269 0.057055,-0.00218 0.099313,-0.00749 0.1308575,-0.014983 0.04157,0.00546 0.083141,0.010947 0.1248248,0.016401 0.037216,0.00429 0.072314,0.00789 0.1039696,0.010146 0.2927732,0.029348 0.5920776,0.046276 0.8943497,0.05759 0.023796,0.013819 0.05013,0.026802 0.08329,0.037443 0.3482775,0.055528 0.7290215,0.050542 1.093216,0.076526 0.1560708,0.011091 0.34469,0.00815 0.371694,0.1013459 0.050045,0.1734316 -0.092627,0.2388621 -0.5266829,0.2412368 -1.0209636,0.00564 -2.0398788,-0.032184 -3.0632095,0.028184 -0.6250792,0.036832 -1.201937,0.1153288 -1.4855907,0.3846259 -0.023819,0.033384 -0.021062,0.06738 -0.00983,0.1015424 -0.1080978,0.085101 -0.2079679,0.1704857 -0.050325,0.2657513 -0.013358,0.00669 -0.027495,0.013383 -0.044265,0.020002 0.022581,0.076286 -0.00631,0.1565394 0.080762,0.2279484 0.038914,0.020184 0.058099,0.049287 0.085393,0.074668 -0.00654,0.031202 -0.034513,0.061764 -0.1383148,0.090945 z M 90.33255,8.1956107 c 0.0081,0.00743 0.01519,0.013967 0.0229,0.020981 -0.0062,1.672e-4 -0.01168,7.27e-4 -0.0176,0.00108 -0.0016,-0.00728 -0.0031,-0.014509 -0.0055,-0.022259 z M 35.332452,10.002462 c 0.003,-0.0015 0.0054,-0.00294 0.0081,-0.00426 8.56e-4,0.00147 0.0016,0.00294 0.0026,0.00426 -0.0035,4e-5 -0.0072,-1.1e-5 -0.0107,9.1e-5 z M 11.704833,1.1468213 c 0.0016,4.36e-5 0.003,4.36e-5 0.0045,9.09e-5 -4.41e-4,0 -7.7e-4,0 -0.0011,-3.6e-6 -0.0011,0 -0.0023,-9.1e-5 -0.0034,-1.346e-4 z m 9.591361,8.3837538 c -7.79e-4,-0.00666 -0.004,-0.012945 -0.0093,-0.018798 0.01261,0.00147 0.02514,0.00217 0.03773,0.00372 -0.0102,0.00526 -0.01911,0.010142 -0.02851,0.015167 z M 21.196186,1.4830762 c -6.3e-5,-0.00109 -6.66e-4,-0.00218 -7.79e-4,-0.00327 0.0038,3.382e-4 0.0076,7.273e-4 0.01154,0.00109 -0.0042,7.273e-4 -0.0067,0.00146 -0.01065,0.00218 z m -7.57635,-0.2519939 c 0,0 1.1e-4,0 2.19e-4,0 0,0 -2.19e-4,4.37e-5 -2.19e-4,9.1e-5 2.19e-4,0.00218 -1.11e-4,0.00476 4.8e-5,0.00713 -0.0027,-0.00255 -0.0054,-0.00495 -0.0082,-0.00735 0.0027,4.37e-5 0.0054,1.309e-4 0.0081,1.673e-4 z m -3.00365,-0.080868 0.0013,-1.346e-4 c -3.31e-4,3.383e-4 -4.41e-4,3.637e-4 -7.7e-4,7.274e-4 -5.5e-4,-1.673e-4 -0.0014,-3.383e-4 -0.002,-3.637e-4 4.41e-4,0 0.001,3.7e-6 0.0016,-9.09e-5 0,0 6e-6,-4.36e-5 1.1e-5,-8.73e-5 0,0 0,0 0,0 z"
       id="path7274"
       style="fill:#800000;fill-opacity:0.1;stroke-width:0.0702066" />
  </g>
</svg>
