<?xml version="1.0" encoding="UTF-8" standalone="no"?>
<!-- Created with Inkscape (http://www.inkscape.org/) -->

<svg
   width="800mm"
   height="200mm"
   viewBox="0 0 800 200"
   version="1.1"
   id="svg1"
   inkscape:version="1.3 (0e150ed6c4, 2023-07-21)"
   xmlns:inkscape="http://www.inkscape.org/namespaces/inkscape"
   xmlns:sodipodi="http://sodipodi.sourceforge.net/DTD/sodipodi-0.dtd"
   xmlns="http://www.w3.org/2000/svg"
   xmlns:svg="http://www.w3.org/2000/svg">
  <sodipodi:namedview
     id="namedview1"
     pagecolor="#ffffff"
     bordercolor="#000000"
     borderopacity="0.25"
     inkscape:showpageshadow="2"
     inkscape:pageopacity="0.0"
     inkscape:pagecheckerboard="0"
     inkscape:deskcolor="#d1d1d1"
     inkscape:document-units="mm"
     showgrid="false"
     inkscape:zoom="0.69219276"
     inkscape:cx="1001.8885"
     inkscape:cy="561.25984"
     inkscape:window-width="1920"
     inkscape:window-height="991"
     inkscape:window-x="-9"
     inkscape:window-y="-9"
     inkscape:window-maximized="1"
     inkscape:current-layer="layer1" />
  <defs
     id="defs1">
    <filter
       style="color-interpolation-filters:sRGB;"
       inkscape:label="Poster Paint"
       id="filter8"
       x="-0.03686688"
       y="-0.9785132"
       width="1.0728595"
       height="2.9569626">
      <feComposite
         operator="arithmetic"
         k2="1"
         result="composite1"
         id="feComposite6" />
      <feGaussianBlur
         stdDeviation="4"
         result="blur1"
         id="feGaussianBlur6" />
      <feGaussianBlur
         in="composite1"
         stdDeviation="0.5"
         result="blur2"
         id="feGaussianBlur7" />
      <feBlend
         in2="blur1"
         mode="lighten"
         result="blend"
         id="feBlend7" />
      <feColorMatrix
         type="saturate"
         values="1"
         result="color1"
         id="feColorMatrix7" />
      <feComponentTransfer
         result="component"
         id="feComponentTransfer7">
        <feFuncR
           type="discrete"
           tableValues="0 0.166667 0.333333 0.5 0.666667 0.833333 1 1"
           id="feFuncR7" />
        <feFuncG
           type="discrete"
           tableValues="0 0.166667 0.333333 0.5 0.666667 0.833333 1 1"
           id="feFuncG7" />
        <feFuncB
           type="discrete"
           tableValues="0 0.166667 0.333333 0.5 0.666667 0.833333 1 1"
           id="feFuncB7" />
      </feComponentTransfer>
      <feColorMatrix
         type="saturate"
         values="1"
         result="color2"
         id="feColorMatrix8" />
      <feGaussianBlur
         stdDeviation="0.01"
         result="blur3"
         id="feGaussianBlur8" />
      <feComposite
         in2="SourceGraphic"
         operator="in"
         result="composite3"
         id="feComposite8" />
    </filter>
  </defs>
  <g
     inkscape:label="Calque 1"
     inkscape:groupmode="layer"
     id="layer1">
    <path
       style="fill:#550000;stroke-width:0.264583;filter:url(#filter8);stroke:#000000;stroke-opacity:1"
       id="path6"
       d="m 121.99666,63.988776 c 0.25149,0.07932 0.27846,-0.297628 0.46462,-0.31354 0.8293,-0.0098 1.65861,-0.01966 2.48791,-0.02948 0.0543,-0.107442 0.0468,-0.290692 0.16299,-0.322323 1.26416,-0.344223 1.63087,0.335071 1.18276,-0.320059 0.99045,0.104172 1.9809,0.208344 2.97135,0.312513 -0.3053,-0.07323 -1.22963,-0.232355 -0.91592,-0.219697 0.66348,0.02677 2.63868,0.256233 1.97469,0.262411 -12.58997,0.117165 -25.18106,0.02154 -37.771478,0.07072 -0.08321,2.64e-4 0.154919,0.08324 0.237803,0.0759 1.011907,-0.08956 2.017119,-0.243167 3.025679,-0.364751 -0.529785,0.121213 -1.193072,-0.0083 -1.589354,0.363638 -0.368507,0.34585 1.442799,-0.274527 1.72258,-0.0767 0.06587,0.04658 -0.293616,0.101272 -0.213847,0.113342 0.242896,0.03676 0.490524,-0.03378 0.736187,-0.0343 13.20114,-0.02764 26.40232,-0.03343 39.60348,-0.05015 0.40596,-0.263554 0.0406,-0.06207 1.09648,-0.03982 0.37015,0.0078 1.002,-0.03523 1.36498,-0.0033 0.70747,0.06226 1.40672,0.25541 2.11679,0.242112 0.3253,-0.0061 -0.62642,-0.176107 -0.93964,-0.264163 0.94686,0.107371 3.79347,0.326721 2.84056,0.322112 -12.6587,-0.06124 -25.31481,-0.406421 -37.97337,-0.492072 -0.22022,-0.0016 -0.83435,0.184888 -0.619,0.230944 0.4334,0.09269 0.88454,-0.05811 1.32723,-0.07948 1.20855,-0.05833 0.85023,-0.05878 1.83787,0.01204 -2.59102,1.559742 4.14432,-1.070179 3.39336,-0.221102 -0.33012,0.373253 -1.94536,0.370771 -1.44709,0.374986 13.40677,0.113464 26.81481,0.04779 40.22172,-0.04683 0.27534,-0.0019 -0.52865,-0.154297 -0.79297,-0.231447 0.7585,0.09143 1.51701,0.182859 2.27551,0.274286 0.42688,-0.248902 2.01927,0.163181 1.67307,-0.284179 -0.44087,-0.569682 -2.80239,-0.392864 -2.09514,-0.5296 0.98874,-0.191159 1.99343,0.375557 3.00026,0.354607 0.60572,-0.01259 -1.1849,-0.25337 -1.77735,-0.380055 1.61993,0.193643 3.23985,0.387287 4.85978,0.580927 -0.52148,-0.137025 -2.06879,-0.22043 -1.56444,-0.411075 0.68939,-0.260593 1.46794,0.144118 2.20452,0.169124 0.17822,0.0061 0.70783,-0.07613 0.5295,-0.07631 -12.29779,0.01339 -24.59559,0.02678 -36.89339,0.04017 0.54132,0.0324 0.50433,-0.137911 0.50244,0.144669 0.91097,-0.108825 1.82195,-0.217651 2.73292,-0.326477 -0.43546,0.09917 -1.75301,0.295675 -1.3064,0.297516 13.67959,0.05636 27.35998,0.01379 41.03889,-0.133818 0.13844,-0.0016 -0.16068,-0.237332 -0.28093,-0.305941 -0.21148,-0.120655 -0.72377,-0.0058 -0.68755,-0.246599 0.0359,-0.238982 0.48334,-0.0016 0.725,-0.0024 -1.22601,-0.415314 -0.19777,-0.04185 2.22352,0.235973 0.18236,0.02093 -0.72023,-0.126396 -0.5367,-0.12316 0.37446,0.0066 1.49015,0.131191 1.11563,0.133368 -40.75367,0.236903 -51.6249,1.523513 -37.05093,-0.113461 -0.26586,0.07846 -1.07104,0.190071 -0.79758,0.235386 0.51258,0.08494 1.03604,-0.08144 1.55482,-0.109908 0.38349,-0.02106 0.76751,-0.04248 1.15156,-0.03862 0.16286,0.0016 0.32348,0.0717 0.4855,0.05508 3.38968,-0.347737 6.12591,-0.937353 1.34339,-0.0057 12.73373,-0.05144 25.46747,-0.102867 38.20121,-0.154302 0.31923,0.02818 0.63756,0.06992 0.9577,0.08454 0.0909,0.0042 0.18106,-0.03755 0.27164,-0.02842 0.74204,0.07484 1.4752,0.238329 2.21986,0.279702 0.25186,0.014 -0.5661,-0.0058 -0.73065,-0.196958 -0.11848,-0.137655 0.36303,-0.01283 0.54454,-0.01926 0.67351,0.07033 1.34991,0.304967 2.02053,0.210987 0.44622,-0.06254 -0.86522,-0.310531 -1.31581,-0.309748 -12.92433,0.02246 -25.84698,0.321548 -38.77121,0.379434 -0.67726,0.003 1.34339,-0.196996 2.02042,-0.214837 0.16962,-0.0045 -0.50836,0.0072 -0.47829,0.174199 0.0306,0.170148 0.34469,0.02731 0.51704,0.04097 0.76332,-0.076 1.5252,-0.168095 2.28996,-0.227994 0.32252,-0.02527 0.64756,-0.0029 0.97014,-0.02735 0.62937,-0.0477 1.2681,-0.326747 1.88406,-0.188989 0.45289,0.101288 -1.82212,0.303945 -1.35805,0.306628 41.33457,0.238975 52.84267,3.586914 39.51437,-0.230796 1.07046,0.05595 2.12736,0.268587 3.19696,0.32793 0.65697,0.03645 -0.30678,-0.384114 0.52166,-0.322043 0.85859,0.06433 1.71113,0.193024 2.5667,0.289536 -12.77907,-0.09673 -25.55791,-0.229547 -38.3372,-0.290192 -0.0899,-5.29e-4 0.1577,0.09545 0.24651,0.109432 0.26613,0.04189 0.53758,0.03633 0.80625,0.05628 1.82417,0.135442 -0.0811,0.04085 2.58124,0.01384 13.23615,-0.134247 26.47255,-0.242152 39.70882,-0.363228 0.77869,-0.06763 2.00633,-0.195884 2.79282,-0.178702 0.71589,0.01564 1.43026,0.191241 2.14401,0.133781 0.30329,-0.02442 -1.12365,-0.05052 -0.88197,-0.235384 0.28537,-0.218286 0.71571,0.06477 1.07422,0.08832 0.1545,0.01016 0.30954,0.0085 0.46431,0.01273 14.96696,1.909051 -0.14174,-0.105859 -35.47467,-0.208496 -0.65194,-0.0019 -1.34248,0.07775 -1.91763,0.384743 -0.43952,0.234596 0.98872,-0.136945 1.48661,-0.154686 0.034,-0.0013 0.008,0.06754 0.0117,0.101304 1.23989,-0.145693 2.47978,-0.291388 3.71967,-0.437081 -0.0282,0.337733 -1.71276,0.522467 -1.25609,0.556329 0.8238,0.06108 1.64139,-0.224359 2.46742,-0.230698 12.66276,-0.0972 25.32617,-0.0805 37.98929,-0.07984 1.55076,8.2e-5 0.83689,0.245803 1.43966,0.01471 2.90829,0.219958 -2.33856,-0.193157 3.09017,0.348607 0.0391,0.0039 0.14385,-0.04202 0.10583,-0.05202 -0.50725,-0.133458 -2.06295,-0.35982 -1.53958,-0.325194 1.11701,0.0739 4.44834,0.434748 3.32893,0.443577 -13.52514,0.106688 -27.05095,-0.09984 -40.57642,-0.149767 0.66601,0.05394 1.36403,-0.01709 2.02722,-0.08499 0.61017,-0.06247 1.22257,-0.314002 1.82764,-0.213516 0.42868,0.07119 -1.69021,0.20779 -1.26705,0.306615 0.6041,0.141081 1.23555,-0.113133 1.85332,-0.169699 13.9907,-1.075732 3.87367,-0.343037 38.93456,-0.149082 0.76827,0.0043 1.52529,0.207005 2.29318,0.231566 0.12763,0.0041 -0.3826,-0.04759 -0.34369,-0.169211 0.0416,-0.129861 0.27154,-0.03489 0.40784,-0.03128 0.30813,0.0081 0.61488,0.04432 0.92231,0.06648 0.86847,0.202256 1.16201,0.212961 1.83366,0.06667 -12.39925,-0.02527 -24.79854,-0.113025 -37.19776,-0.07577 -0.18187,5.3e-4 -0.69366,0.187421 -0.5118,0.189066 0.61957,0.0056 1.23357,-0.117961 1.85036,-0.176942 -0.4189,0.114522 -0.86836,0.149209 -1.25672,0.343564 -0.10921,0.05465 0.22719,0.112138 0.34931,0.110551 0.6505,-0.0085 1.29951,-0.07334 1.9466,-0.140404 1.34928,-0.13984 2.68472,-0.461275 4.0411,-0.480163 0.67951,-0.0095 -2.66764,0.448296 -1.98807,0.451575 13.36343,0.06443 26.72657,-0.178581 40.08986,-0.26787 -1.40735,-1.433081 4.18708,1.384046 3.61632,0.317048 -0.27923,-0.521994 -1.37238,-0.01466 -1.70229,-0.506191 -0.19443,-0.289687 11.16741,0.270005 5.79017,0.285864 -11.59696,0.0342 -23.19328,-0.185904 -34.78992,-0.278857 0.46668,1.715291 -0.18061,-0.153427 4.02007,0.149981 0.3888,0.02808 -1.4379,0.298321 -1.0791,0.450673 0.59341,0.251968 1.28737,-0.09407 1.93204,-0.08851 0.0963,7.94e-4 0.32579,0.03041 0.2681,0.10749 -0.10523,0.140578 -0.32744,0.126992 -0.49115,0.190489 -0.30132,0.07966 -1.21564,0.239914 -0.90397,0.238972 13.91857,-0.04214 27.83599,-0.271867 41.75433,-0.362651 0.31152,-0.0021 0.62256,0.129434 0.93079,0.08423 0.45326,-0.06647 -1.51104,-0.189307 -1.41049,-0.349734 0.16987,-0.271037 0.63934,0.02265 0.95901,0.03398 0.23622,-0.01963 0.47189,-0.07 0.70866,-0.05889 0.80622,0.03783 1.60676,0.159938 2.41258,0.205337 0.32054,0.01807 1.28404,-0.01249 0.96301,-0.01516 -11.79156,-0.09845 -23.58294,-0.307039 -35.37485,-0.27214 -1.11076,0.0033 -1.2963,0.147182 -1.91843,0.520176 0.64908,-0.07362 1.29486,-0.187571 1.94726,-0.220871 0.11669,-0.006 -0.43058,0.09413 -0.32225,0.137929 0.20491,0.08286 0.44256,0.01466 0.6631,-1.03e-4 2.59133,-0.173588 1.46985,-0.212844 3.65593,-0.222408 12.6516,-0.05535 25.30326,-0.09231 37.9549,-0.138462 5.52666,0.07895 -3.81686,-0.109636 6.20421,0.470514 0.07,0.004 0.13314,-0.129593 0.0943,-0.187915 -0.0803,-0.120484 -0.51529,-0.225489 -0.37051,-0.22665 0.74666,-0.006 1.59983,0.612219 2.23001,0.211722 0.54642,-0.347245 -1.2635,-0.28298 -1.89525,-0.424469 14.45526,1.607151 2.6187,0.206174 -34.77547,0.409657 -0.14465,7.94e-4 0.49007,-0.100123 0.43271,0.03267 -0.0738,0.170849 -0.42199,0.03123 -0.52675,0.185049 -0.0697,0.102373 0.2452,0.05822 0.36857,0.04721 0.97821,-0.08729 1.95097,-0.227505 2.92645,-0.341257 0.60372,-0.612945 0.33326,0.27169 0.53164,0.267753 0.91695,-0.0182 1.82379,-0.233662 2.7409,-0.240221 12.92332,-0.09242 25.84748,0.01728 38.77092,-0.05666 0.0704,-5.29e-4 -0.0884,-0.109582 -0.13264,-0.164372 0.44061,0.0311 0.8812,0.06219 1.32181,0.09329 2.75127,0.140571 -1.25309,-0.08769 3.6273,0.355396 0.16309,0.01482 0.62601,0.06823 0.49073,-0.0241 -0.24556,-0.167603 -1.1588,-0.245901 -0.86196,-0.229264 0.8999,0.05044 3.58489,0.331602 2.68359,0.331364 -13.02901,-0.0035 -26.05702,-0.227364 -39.08551,-0.341045 0.16702,0.01802 0.33504,0.02838 0.50106,0.05409 0.14016,0.02172 0.27754,0.05865 0.41631,0.08798 0.78545,-0.06791 1.57122,-0.275146 2.35636,-0.203714 0.36465,0.03318 -1.41618,0.320048 -1.05003,0.322565 0.9823,0.0067 1.95224,-0.222145 2.93066,-0.309642 0.48055,-0.04297 0.9634,-0.05445 1.4451,-0.08167 11.91767,5.448408 0.38026,0.211391 38.79988,0.176181 0.0375,-3.5e-5 -0.007,-0.101413 0.0296,-0.108694 0.18122,-0.03583 0.37039,0.01241 0.55415,-0.0067 0.0542,-0.0056 0.0953,-0.07213 0.14951,-0.06647 1.01711,0.106143 2.02787,0.266335 3.04181,0.399502 -0.0772,-0.03693 -0.17814,-0.0439 -0.23146,-0.110802 -0.0233,-0.02932 0.054,-0.05199 0.081,-0.07799 0.54361,0.01603 2.17469,0.05224 1.63086,0.04811 -11.81441,-0.08968 -23.62821,-0.266685 -35.44289,-0.304769 -0.29362,-0.0011 0.56716,0.164693 0.85938,0.193284 0.54302,0.05313 1.09071,0.03392 1.63606,0.05089 0.70077,-0.251108 1.38077,0.200617 2.07095,0.149045 1.27398,-0.0952 2.53105,-0.396404 3.80807,-0.433041 0.51916,-0.0149 -1.02413,0.195458 -1.5143,0.367234 -0.11568,0.04054 0.24347,0.03481 0.36605,0.03516 13.67468,0.03897 27.34943,0.05519 41.02416,0.08278 0.2722,-0.273571 -0.64397,-0.152087 -0.52128,-0.31352 0.15729,-0.206947 0.51744,-0.06072 0.77737,-0.06149 0.78602,-0.0024 1.57242,0.09095 2.35749,0.05226 0.41182,-0.02029 0.80663,-0.176583 1.21571,-0.228344 0.6496,-0.0822 1.3045,-0.115398 1.95675,-0.173098 15.52114,0.647266 2.17151,0.02315 -28.92674,0.418483 -0.27445,0.0035 0.53279,0.160721 0.80724,0.162486 0.70983,0.0046 1.41859,-0.216842 2.12461,-0.143639 -1.02402,0.291904 -1.25907,0.234857 -0.66336,0.293888 14.67461,-1.86282 -14.28428,-0.311078 40.19803,-0.259244 0.12235,1.17e-4 1.4939,0.16183 1.58557,0.124336 0.0978,-0.04002 -0.11231,-0.179086 -0.16848,-0.268632 1.90865,-0.480396 3.97115,0.773348 5.88973,0.341723 0.45513,-0.102391 -1.78927,-0.465241 -1.32284,-0.456853 1.51929,0.02732 3.01226,0.430077 4.52943,0.514516 0.36983,0.02058 -0.70903,-0.214413 -1.06357,-0.321619 0.72697,0.07833 1.45394,0.156659 2.1809,0.234989 0.45982,-0.10061 0.93189,0.107998 1.38801,0.02979 0.19455,-0.03336 -0.98153,-0.335486 -0.71911,-0.323233 5.92008,0.27642 0.44325,0.250613 2.91518,0.250893 0.40462,0.02283 0.80997,0.101473 1.21388,0.06851 0.0832,-0.0068 -0.27366,-0.113278 -0.19939,-0.151291 0.15933,-0.08155 0.35769,-0.01543 0.53657,-0.02127 1.98528,-0.065 -3.01013,0.113848 2.49182,0.215138 0.21342,0.0039 -0.4051,-0.134673 -0.60764,-0.202009 0.78743,0.07396 1.57157,0.204436 2.36228,0.221877 0.0625,0.0013 0.0558,-0.111948 0.0837,-0.167923 0.24133,-0.01924 0.482,-0.06498 0.72398,-0.05769 0.61878,0.01865 1.23368,0.159835 1.85225,0.135331 0.14411,-0.0057 -0.25805,-0.128912 -0.38709,-0.193368 0.91853,0.102601 1.83706,0.205201 2.75558,0.307801 -0.51035,-0.118756 -1.06399,-0.118713 -1.53101,-0.35627 -0.27728,-0.141044 0.6222,0.02172 0.93189,0.05152 0.69895,0.06723 1.39094,0.222152 2.09291,0.239437 0.18417,0.0045 -0.69797,-0.179298 -0.51499,-0.200583 0.46122,-0.05365 0.92575,0.07545 1.38951,0.09886 0.32489,0.0164 0.65048,0.01371 0.97573,0.02058 -0.54959,-0.129107 -2.21003,-0.326353 -1.64877,-0.387319 0.87302,-0.09483 1.74365,0.216382 2.61937,0.281887 0.19198,0.01437 0.38362,-0.05138 0.57595,-0.04286 0.55316,0.0245 1.10156,0.157041 1.65505,0.141692 0.12615,-0.0035 -0.46001,-0.171913 -0.33396,-0.178329 0.49585,-0.02524 0.9898,0.07984 1.48471,0.119761 0.19838,0.01519 2.33383,0.183219 2.50129,0.1769 0.044,-0.0016 -0.0559,-0.129145 -0.0119,-0.131516 0.45278,-0.02445 0.90988,0.12097 1.35904,0.05882 0.0987,-0.01365 -0.13589,-0.145772 -0.20381,-0.218659 0.34443,-0.02394 0.68889,-0.04789 1.03335,-0.07183 3.3854,0.292489 3.10179,0.412512 5.61666,0.303758 0.45646,-0.01974 0.91061,-0.09505 1.3675,-0.09303 0.7907,0.0035 1.57895,0.114916 2.36966,0.109529 0.18714,-0.0013 0.35922,-0.133683 0.54634,-0.129399 0.74779,0.01712 1.49042,0.128714 2.23562,0.193074 1.82176,-0.657998 -1.45857,-0.02394 -1.23129,-0.389543 0.0576,-0.09266 0.21873,-0.01918 0.32723,-0.0078 0.92967,0.09718 1.85487,0.234344 2.78437,0.333097 0.62077,0.06595 1.29278,0.408559 1.86582,0.160946 0.44558,-0.192529 -0.9411,-0.238133 -1.41163,-0.357198 0.23151,-1.15861 -0.0463,0.03219 3.17225,0.282959 0.24873,0.01939 -0.70216,0.03998 -0.71877,-0.208976 -0.0156,-0.235151 0.47159,0.0079 0.70654,0.02609 1.7943,0.139314 0.90398,0.174868 1.82433,0.117266 -1.04653,-0.441106 -0.45895,-0.156353 1.95498,0.123203 0,0 -41.64563,-6.59602 -41.64563,-6.59602 v 0 c -1.40152,-0.0992 -0.74245,-0.05826 -1.97699,-0.126688 3.8078,0.819259 -0.55737,-0.165706 -1.04021,0.0069 -0.69697,0.249198 1.52675,0.07971 2.17837,0.430824 0.50228,0.27065 -1.13356,-0.135139 -1.70278,-0.174554 -0.16357,-0.01132 -0.63905,-0.04878 -0.49141,0.02262 0.36163,0.1749 0.77748,0.202494 1.16623,0.303742 -3.33804,-0.132861 2.48462,0.126764 -4.18862,-0.395224 -0.0398,-0.0031 0.0769,0.114514 0.0371,0.113776 -0.41421,-0.0077 -0.84117,-0.263422 -1.23534,-0.136004 -0.25133,0.08123 1.54868,0.156594 0.72914,0.31001 -1.00807,-0.105987 -2.01361,-0.396716 -3.02416,-0.317966 -0.49713,0.03874 1.92629,0.405006 1.42904,0.442272 -1.16518,0.08733 -2.32577,-0.248065 -3.49356,-0.287538 -0.37738,-0.01275 -0.76809,0.0085 -1.12512,0.131418 -0.0947,0.03263 0.0106,0.290336 -0.0896,0.286917 -1.54821,-0.05286 -3.08382,-0.298616 -4.62573,-0.447923 -0.79225,-0.04698 -1.63722,-0.428977 -2.37673,-0.140939 -0.5175,0.20156 2.15964,0.388882 1.60671,0.440854 -0.98946,0.09301 -1.97234,-0.264654 -2.96497,-0.313182 -0.13267,-0.0065 0.48543,0.185587 0.35261,0.185476 -1.08233,-7.94e-4 -2.15048,-0.286996 -3.23377,-0.292912 -0.15062,0.0146 -0.30056,0.04101 -0.45188,0.04382 -0.303,0.0056 -0.75999,-0.282438 -0.90898,-0.01855 -0.13419,0.237678 1.04876,0.188519 0.78156,0.244229 -0.48252,0.100603 -0.98433,-0.05618 -1.47532,-0.09958 -0.78116,-0.06905 -1.55649,-0.223655 -2.34056,-0.237728 -0.17856,-0.0032 0.33012,0.136403 0.4952,0.204605 -0.43712,-0.02458 -0.87389,-0.05657 -1.31136,-0.07373 -0.27646,-0.01085 -1.05219,-0.175067 -0.82997,-0.01024 0.34306,0.254434 1.66883,0.306642 1.24182,0.315701 -0.81129,0.01722 -1.60742,-0.235201 -2.41699,-0.290764 -0.1174,-0.0081 0.4386,0.151427 0.32099,0.146915 -0.69294,-0.02658 -1.37956,-0.142647 -2.06933,-0.213971 0.12451,0.0626 0.24087,0.145129 0.37356,0.187807 0.40164,0.129191 1.64476,0.33787 1.22304,0.325771 -1.16009,-0.03328 -2.30158,-0.316185 -3.4598,-0.389941 -0.0566,-0.0036 0.0278,0.170268 -0.0289,0.167778 -2.92521,-0.128529 -3.89387,-0.951193 -2.81406,-0.112252 3.67599,0.807857 1.23966,0.225785 -3.02416,-0.284403 -0.11493,-0.01376 0.36931,0.232211 0.25369,0.237161 -0.42215,0.01807 -0.85032,-0.161567 -1.26503,-0.08065 -0.20124,0.03927 0.38423,0.143354 0.57634,0.21503 -1.76786,-0.03095 0.27877,0.02849 -2.94336,-0.255355 -0.92228,-0.08125 -0.48095,0.0031 -1.19763,0.01966 -0.72885,0.01688 -0.56798,-0.210693 -0.72919,0.07456 -0.17008,0.0099 -0.34171,0.0047 -0.51025,0.02962 -0.12004,0.01773 -0.22942,0.101253 -0.35073,0.09761 -0.80936,-0.02429 -1.61322,-0.209333 -2.42242,-0.180803 -0.0934,0.0033 0.19074,0.258006 0.0974,0.262771 -0.23278,0.01191 -5.6189,-0.300911 -5.63943,-0.302075 0.51152,0.161666 2.07068,0.503687 1.53456,0.484995 -1.37121,-0.04781 -2.71516,-0.39827 -4.07594,-0.573601 -0.0719,-0.0093 -0.2889,0.02087 -0.21643,0.02056 17.36133,-0.07616 59.22547,-2.326217 37.215,0.54665 -0.71925,0.09388 1.42801,-0.255632 2.14199,-0.383447 -0.85464,0.09575 -2.57829,0.268854 -3.45983,0.166298 -0.15364,-0.01788 -0.25048,-0.22707 -0.40516,-0.226168 -45.18464,0.263096 -25.86005,1.143214 -43.91273,0.235471 -0.0148,-5.29e-4 -6.29849,-0.194416 -6.72772,-0.161655 -0.11181,0.0085 -0.0483,0.295227 -0.16042,0.29572 -0.98668,0.0043 -1.96188,-0.344348 -2.94661,-0.282083 -0.53605,0.0339 2.10511,0.346321 1.56848,0.369223 -0.91117,0.03889 -1.81145,-0.213466 -2.71717,-0.320201 13.0288,-0.08067 26.05739,-0.227862 39.08645,-0.241999 0.62394,-7.94e-4 -1.2387,0.155808 -1.86095,0.201607 -0.24611,0.01812 -0.49424,-0.02955 -0.74025,-0.01016 -1.00208,0.07901 -1.99694,0.241036 -3.00008,0.305073 -0.35095,0.02241 -0.74282,0.117615 -1.05392,-0.04628 -0.14166,-0.07461 0.23844,-0.213664 0.35766,-0.320498 -1.24822,0.09436 -2.49475,0.214551 -3.74464,0.283083 -0.80899,0.04436 -1.61978,0.0591 -2.42996,0.05547 -12.87241,-0.05768 -25.74444,-0.17733 -38.61682,-0.23939 -0.34113,-0.0016 -0.68128,0.05866 -1.02226,0.04828 -0.44503,-0.01355 -0.88688,-0.07992 -1.33032,-0.119878 -0.17057,-0.0024 -0.34114,-0.0046 -0.51171,-0.0069 -0.2248,-0.0082 -0.44946,-0.02588 -0.67442,-0.02455 -0.12535,7.94e-4 -0.44723,-0.07152 -0.37479,0.03078 0.10619,0.149965 0.36233,0.08626 0.52204,0.177146 0.0324,0.01847 -0.0533,0.110985 -0.016,0.110837 48.54906,-0.193125 48.22323,-0.191384 35.52907,-0.260046 -0.27069,-0.0062 -0.54565,0.02983 -0.81203,-0.0186 -0.61349,-0.111517 0.95623,-0.417642 0.22106,-0.3458 -1.89513,0.185192 -3.7732,0.519279 -5.66589,0.72789 -0.34748,0.0383 -1.26902,0.283654 -1.04873,0.0122 0.28567,-0.352015 0.87754,-0.227957 1.31633,-0.341937 -12.77411,0.04352 -25.54816,0.137107 -38.32235,0.130553 -0.21815,-1.11e-4 -3.32702,-0.345241 -3.37445,-0.348046 -1.21983,-0.07215 4.55603,1.108403 -0.55981,0.23227 -13.20603,-0.345017 -27.6116,-0.734938 35.27256,0.04751 4.48945,0.05586 -4.43053,0.433121 -4.02529,0.24542 0.64802,-0.300157 1.39136,-0.322853 2.08703,-0.48428 -1.10903,0.09647 -2.17561,0.14175 -3.28078,0.190177 -0.35007,0.01535 -0.69882,0.06514 -1.04926,0.06498 -38.77192,-0.01818 -25.88631,1.3227 -40.80285,-0.319156 0.23964,0.07939 0.53369,0.06666 0.71893,0.238172 0.0933,0.08643 -0.24546,0.07907 -0.37263,0.08247 -0.43296,0.01159 -0.86569,-0.03604 -1.2988,-0.03773 -0.36732,-0.0013 -0.73437,0.03652 -1.10161,0.02838 -3.0457,-0.06749 -1.17576,-0.192902 -3.23062,5.29e-4 11.75586,0.03708 23.51167,0.108963 35.26759,0.111252 0.21324,4.2e-5 -0.41825,-0.116647 -0.63115,-0.104505 -0.96449,0.055 -1.91643,0.333039 -2.88207,0.304856 -0.51876,-0.01514 1.02198,-0.19299 1.51829,-0.34466 0.0734,-0.02244 -0.14971,-0.0338 -0.22457,-0.05069 -0.57749,0.06236 -1.15497,0.124722 -1.73246,0.187081 -0.11849,-0.01521 -0.4627,0.0071 -0.35548,-0.04563 0.3126,-0.153595 1.35632,-0.276394 1.00803,-0.275005 -12.83449,0.05123 -25.66722,0.326517 -38.50144,0.424654 -1.2292,0.0094 -4.13065,-0.401119 -5.00473,-0.442828 -0.0597,-0.0029 -0.0352,0.11416 -0.0528,0.171241 -0.63151,-0.0554 -1.26214,-0.122092 -1.89454,-0.166211 -0.28325,-0.01976 -1.02196,-0.252378 -0.85143,-0.02537 0.20718,0.275802 0.89714,-0.09274 1.00807,0.233881 0.10436,0.307327 -1.29165,-0.111196 -0.9671,-0.113231 41.69803,-0.261464 53.53159,-2.103765 38.61126,0.115663 -0.4942,0.04636 -2.4163,0.228422 -2.55693,0.229399 -0.0868,5.29e-4 -0.83663,-0.340503 -0.84389,-0.343689 -5.76676,0.03311 -2.1952,0.541639 -5.36457,-0.0064 -13.32075,-0.124159 -26.64098,-0.334883 -39.96225,-0.372475 -0.19582,-5.29e-4 -0.33259,0.241128 -0.52765,0.258217 -0.67694,0.0593 -1.35898,-0.01728 -2.03831,-0.03341 -0.62287,-0.01479 -1.24526,-0.07059 -1.8682,-0.05932 -0.12404,0.0021 -0.23907,0.06641 -0.35861,0.09961 -1.02242,-0.128831 -2.04484,-0.257665 -3.06726,-0.386496 12.92625,0.06601 25.85238,0.159383 38.77874,0.198036 0.11616,2.64e-4 -0.22231,-0.08637 -0.33843,-0.08309 -0.64816,0.01828 -1.2944,0.211177 -1.93967,0.147331 -0.23876,-0.02363 0.90486,-0.252286 0.66586,-0.27337 -0.67248,-0.05932 -1.34626,0.102642 -2.01939,0.153963 -0.17923,-0.01979 -0.35846,-0.03957 -0.53768,-0.05936 -0.46332,0.03467 -0.98578,0.333155 -1.38996,0.104021 -0.32373,-0.183529 1.45307,-0.280506 1.08093,-0.27921 -13.29342,0.04634 -26.58557,0.276294 -39.87836,0.414441 -0.75203,-0.09118 -1.49944,-0.237035 -2.25611,-0.273529 -0.13856,-0.0067 1.74911,0.346408 0.36609,0.197943 -0.54642,-0.06001 -1.09283,-0.120018 -1.63925,-0.180025 0.0858,0.04556 0.35467,0.139451 0.25753,0.136665 -0.62986,-0.01805 -1.2524,-0.146558 -1.88145,-0.183216 -0.19343,-0.01127 -0.77368,0.03866 -0.57992,0.03979 37.81756,0.218951 50.6383,-0.596572 36.49795,0.267079 1.4156,-0.510686 0.19543,-0.0145 -1.23641,-0.03387 -0.27197,-0.0037 0.87863,0.05627 0.7908,-0.201157 -0.0907,-0.265943 -0.56032,0.05447 -0.84131,0.05311 -0.0524,-2.52e-4 -0.094,-0.05204 -0.1461,-0.05788 -0.14247,-0.01601 -0.2867,-0.0045 -0.43006,-0.0068 -13.36893,0.0056 -26.73787,-0.0016 -40.10678,0.01667 -0.0968,1.32e-4 -0.37993,0.0089 -0.28776,0.03837 0.42766,0.136766 1.76403,0.273193 1.31535,0.290253 -0.70068,0.02665 -2.67296,-0.646477 -2.08731,-0.260898 0.33026,0.217435 8.64646,1.310799 -1.57039,-0.107381 -0.12772,0.01132 -0.40063,-0.09306 -0.38315,0.03396 0.0205,0.149169 0.26243,0.183269 0.41301,0.182988 12.66255,-0.02355 25.32431,-0.231817 37.98687,-0.254365 4.60525,-0.0082 -3.58088,0.233709 -3.60245,0.234977 -0.69882,0.04105 -1.39595,0.107294 -2.09392,0.160938 -4.25598,0.178392 4.17098,-0.120931 2.12244,-0.55399 -1.22969,-0.259953 -2.48029,0.463555 -3.73641,0.506426 -0.777,0.02652 3.06452,-0.447937 2.28713,-0.456962 -43.94451,-0.510212 -55.5675,-4.76417 -41.6649,0.225393 -0.42145,-0.01513 -0.84284,-0.05848 -1.26436,-0.04541 -0.15596,0.0048 -0.57025,-0.0091 -0.45757,0.09881 0.23629,0.226351 1.24577,0.318876 0.9195,0.343688 -0.88234,0.0671 -1.76135,-0.200593 -2.64616,-0.212375 -0.3741,-0.005 -0.56882,0.782354 -1.08124,0.301196 12.32568,-0.02909 24.65136,-0.119907 36.97703,-0.08725 0.81964,0.0021 -1.63325,0.150852 -2.45242,0.178713 -0.31583,0.01074 -0.63367,-0.0146 -0.94593,-0.06314 -0.11384,-0.0177 -0.20378,-0.139761 -0.31883,-0.13348 -0.96551,0.05272 -1.91746,0.310412 -2.88441,0.308372 -12.77783,-0.02696 -25.55437,-0.263551 -38.33155,-0.395327 0.83688,0.685615 -0.58055,-0.530061 -2.0384,-0.08061 -0.53986,0.166439 2.21155,0.39139 1.64669,0.400976 -1.08706,0.01844 -2.15892,-0.259924 -3.24015,-0.373938 -0.46982,-0.04954 -1.27851,-0.569719 -1.41248,-0.116681 -0.13159,0.444957 0.90805,0.191415 1.36208,0.287125 -14.06454,-1.27459 -3.81711,-0.315901 38.64287,-0.144018 0.63501,0.0026 -1.26056,0.158488 -1.89361,0.208397 -0.21011,0.01656 -0.42176,-0.02069 -0.63221,-0.0093 -0.54464,0.02954 -1.08656,0.165376 -1.63099,0.132038 -0.16231,-0.0099 0.29521,-0.13653 0.44281,-0.204795 -1.00325,0.117961 -1.99959,0.35887 -3.00973,0.353883 -0.56461,-0.0028 1.1186,-0.184352 1.65501,-0.360569 0.14542,-0.04777 -0.30498,-0.0332 -0.45805,-0.03265 -12.96464,0.04661 -25.9292,0.116083 -38.89381,0.174125 -0.5574,-0.05443 -1.11321,-0.128934 -1.67222,-0.163293 -0.16802,-0.01032 -0.3361,0.01968 -0.50416,0.02953 -1.08922,0.262827 -3.17152,-0.630068 -2.69903,-0.16633 0.40866,0.401084 1.14166,0.155149 1.68412,0.338471 0.29084,0.09829 -0.6117,-0.05294 -0.91755,-0.07941 12.66234,-0.04092 25.32469,-0.08185 37.98704,-0.122779 -0.88389,0.02109 -1.7751,0.04146 -2.6573,0.0945 -0.57402,0.03451 -1.15369,0.238225 -1.71973,0.136784 -0.32742,-0.05868 1.29251,-0.271447 0.95987,-0.272965 -0.77935,-0.0035 -1.54854,0.177831 -2.32281,0.266747 10.86117,-6.491052 -0.19396,0.164037 -37.00822,0.04934 -0.87192,-0.0027 -1.72743,-0.264845 -2.59871,-0.298283 -0.17354,-0.0067 0.64435,0.184031 0.47378,0.216731 -0.80013,0.153389 -1.64026,-0.186955 -2.44409,0.0049 0.21436,0.1001 0.55841,0.07939 0.64307,0.3003 0.17227,0.449508 -7.89778,-0.120473 -3.02383,-0.118557 64.07419,0.02519 49.80782,0.05182 36.68664,0.306406 0.77446,-0.159544 1.62593,-0.106056 2.32337,-0.478631 0.50065,-0.267452 -1.12913,0.142832 -1.69675,0.143885 -13.57437,0.02519 -27.1488,-0.106894 -40.72313,-0.06521 -0.0634,1.94e-4 0.0668,0.182052 0.004,0.190244 -0.73548,0.09579 -3.73795,-0.139938 -4.01393,-0.156835 -0.18929,0.0654 -0.5072,0.0053 -0.56787,0.196186 -0.0544,0.171246 0.56219,0.342114 0.38582,0.376486 -0.74402,0.145 -1.51605,-0.01471 -2.27404,-0.0085 -0.17104,0.0013 -0.34403,0.06266 -0.51219,0.03134 -0.39759,-0.07405 -0.77026,-0.249616 -1.16364,-0.343469 -0.079,-0.01887 0.14258,0.07792 0.21387,0.116877 0.36504,0.206314 0.29268,0.116237 -0.31625,0.141875 12.28558,0.03857 24.57116,0.07714 36.85675,0.115713 0.16216,-5.29e-4 0.59833,-0.224721 0.43646,-0.214905 -3.18168,0.192936 -4.55513,0.952679 -2.96313,0.153013 0.0633,-0.06457 0.28038,-0.194516 0.18995,-0.193698 -0.74308,0.0067 -1.47813,0.157514 -2.21924,0.212055 -0.32157,0.02365 -0.6447,0.01495 -0.96705,0.02244 -0.13435,-0.02305 -0.26675,-0.06924 -0.40306,-0.06913 -39.67787,0.03284 -25.52893,1.272513 -40.19919,-0.07613 -2.198669,-0.02193 0.60163,-0.05038 0.49225,0.287747 -0.13754,0.425167 -0.89125,-0.0667 -1.33645,-0.10519 -0.578539,-0.05001 -1.154005,-0.158269 -1.734699,-0.160314 -0.110043,-2.64e-4 0.194238,0.103487 0.291356,0.155231 -0.543658,-0.05165 -1.087316,-0.103312 -1.630973,-0.154966 13.051946,-0.05262 26.103996,-0.08452 39.155846,-0.157859 0.0312,-1.74e-4 -0.0393,-0.06502 -0.0704,-0.06176 -0.869,0.09115 -1.73133,0.238125 -2.59892,0.34176 -0.42427,0.05068 -1.67614,0.27128 -1.27612,0.121118 0.99278,-0.372666 4.20024,-0.630142 0.26479,-0.239379 -0.2239,-1.346563 0.0892,0.306324 -3.70685,0.33728 -11.89471,0.097 -23.79005,-0.08542 -35.685081,-0.128132 -0.541843,-0.03867 -1.082312,-0.11362 -1.625528,-0.115999 -0.274715,-0.0013 -0.390605,0.134901 -0.579459,0.284194 -0.971156,-0.05437 -1.942309,-0.108738 -2.913462,-0.163105 0.75701,0.218546 3.058565,0.630606 2.271035,0.655643 -2.02982,0.06453 -4.046003,-0.356603 -6.069004,-0.534903 0.146902,0.12037 0.587187,0.240226 0.440706,0.361109 -0.530368,0.437692 -1.511674,-0.16855 -2.034331,0.342474 z" />
  </g>
</svg>
